<?xml version="1.0" encoding="utf-8"?>
<!-- Generator: Adobe Illustrator 19.0.0, SVG Export Plug-In . SVG Version: 6.00 Build 0)  -->
<svg version="1.1" id="Layer_1" xmlns="http://www.w3.org/2000/svg" xmlns:xlink="http://www.w3.org/1999/xlink" x="0px" y="0px"
	 viewBox="0 0 99 99" style="enable-background:new 0 0 99 99;" xml:space="preserve">
<style type="text/css">
	.st0{fill-rule:evenodd;clip-rule:evenodd;fill:#33363F;}
	.st1{fill-rule:evenodd;clip-rule:evenodd;fill:#F08636;}
	.st2{fill-rule:evenodd;clip-rule:evenodd;fill:#A45415;}
	.st3{fill-rule:evenodd;clip-rule:evenodd;fill:#F7F1D7;}
	.st4{fill-rule:evenodd;clip-rule:evenodd;fill:#F7E5BB;}
	.st5{fill-rule:evenodd;clip-rule:evenodd;fill:#976332;}
	.st6{fill-rule:evenodd;clip-rule:evenodd;fill:#E4CCA0;}
	.st7{fill-rule:evenodd;clip-rule:evenodd;fill:#F4DBAC;}
	.st8{fill-rule:evenodd;clip-rule:evenodd;fill:#AA9169;}
	.st9{fill-rule:evenodd;clip-rule:evenodd;fill:#A17C40;}
</style>
<g>
	<g>
		<path class="st0" d="M100,51c0,15.7,0,31.3,0.1,47c0,1.7-0.3,2.1-2.1,2.1c-31.7-0.1-63.3-0.1-95,0c-1.7,0-2.1-0.3-2.1-2.1
			C1,66.3,1,34.7,0.9,3c0-1.7,0.3-2.1,2.1-2.1C34.7,1,66.3,1,98,0.9c1.7,0,2.1,0.3,2.1,2.1C100,19,100,35,100,51z"/>
		<path class="st1" d="M44.2,93.1c-10-1.5-18.6-5.8-25.6-13.1C-0.7,59.8,3.7,26.7,27.6,12.5C47.2,0.8,72.1,5.6,85.4,24.1
			c7.5,10.4,10.5,22.1,7.4,34.9c-2.6,1.5-4.1-0.5-5.5-2C76.6,45.9,64.7,35.9,54.9,23.7c-0.6-0.8-1.4-1.5-2.5-1.4
			c-0.3,0.2-0.6,0.3-0.9,0.6c-0.2,0.3-0.5,0.6-0.7,1c-0.6,1-0.3,2-0.2,3c0.1,1.8,1.8,3.2,1.2,5.2c-2.1,4.3-0.8,9.1-1.9,13.6
			c-0.2,2-1.4,3.3-3.1,4.2c-4.6,0.6-3.4,4.3-2,5.8c3.5,3.8,1.6,7.9,0.1,10.5c-3.5,5.7-2.3,9.8,1.9,14c0.8,3.7,5.2,3.9,6.6,7
			c0.7,1.7,3.2,2.8,2.1,5.2c-1.1,2.2-3.3,1.1-5,1.2C48.5,93.5,46.3,94,44.2,93.1z"/>
		<path class="st2" d="M44.2,93.1c2.8,0,5.6-0.1,8.4-0.1c0.6,0,1.4,0,1.7-0.6c0.4-0.7-0.3-1.2-0.8-1.6c-2.6-2.3-4.4-5.3-7.3-7.2
			c-0.7-0.5-2.4-1.1-1.1-2.6c1.1-1.6,1.1-3.4,0.9-5.3c-0.3-2.5,0.6-4.4,3.1-5c2.5-0.6,4.1,0.6,4.9,3c0.4,1.1,0.4,3,2.4,2.4
			c1.4-0.4,1.7-2,1.7-3.3c0-2.1-0.8-3.8-1.9-5.6c-2.2-3.7-3.3-7.2-0.8-11.5c2.5-4.3,1-7.8-3-9.4c-0.8-0.3-1.4-0.9-1.7-1.6
			c0.1-4.6-1.7-9.3,0.2-13.9c-0.5-0.8-1.4-0.7-2.2-0.8c-1.4-0.2-1-1-0.6-1.7c2.5-1.8,3.2-3.9,0.9-6.4c0-0.3,0-0.6,0-0.9
			c0.8-1.2,2-1.2,3.2-1.2c2,0.4,3,2,4.3,3.2C67.1,33.7,77.8,44.4,88.4,55c1.4,1.4,2.9,2.7,4.4,4C90.5,70.8,84,80,74.1,86.5
			c-8.1,5.4-17.3,8-27.2,7.5C45.9,93.9,44.9,94,44.2,93.1z"/>
		<path class="st3" d="M54,45c3.3,0.7,4.6,1.9,4.9,4.9c0.2,2.4-0.4,4.7-1.5,6.7c-2.2,4.3-2.1,5.7,0.9,9c2.7,2.9,3.1,6.6,2.3,10.2
			c-0.7,3-3.4,4.4-6.3,5c-2.4,0.5-3.1-0.1-2.9-2.5c0.1-1.2,0.4-2.3,0.5-3.4c0.1-1,0.5-2.2-0.6-2.7c-0.7-0.3-1.7-0.3-2.4,0
			c-1.2,0.5-0.7,1.7-0.5,2.6c0.2,1,0.4,2,0.5,2.9c0.2,3.1,0,3.2-3.7,3.1c-6.7-4.3-7.4-9.2-2.2-15.7c1.7-2.1,1.8-5.9,0.3-8.6
			c-1.2-2.2-1.9-4.5-1.6-7.1c0.2-1.7,1-3.1,2.4-4.1c1.1-0.7,1.7-1,1.9,0.6c0.1,1,0.2,2,0.2,3c0.9,0.6,1.2,1.5,1.5,2.4
			c0.5,1.2,1.4,1.8,2.7,1.5c1.3-0.2,1.7-1.3,1.9-2.5C52.6,48.6,52.1,46.4,54,45z"/>
		<path class="st4" d="M50.9,30.8c0.4,4.7,0.8,9.5,1.2,14.2c1.4,2.6,0.8,5.5,0.7,8.2c0,1.7-1.1,2.6-2.9,2.6c-1.8,0-2.7-1-2.9-2.7
			c-0.2-2.8,0.2-5.5,0.9-8.2c0.9-3.2,0.9-6.6,1-9.9C49,33.3,49,31.6,50.9,30.8z"/>
		<path class="st5" d="M48,44.9c0.6,2.7,0,5.3,0.1,8c0,1.5,0.8,2,2.2,2c1.3,0,1.7-0.8,1.7-1.9c0-2.7,0.1-5.3,0.1-8
			c0.6,0,1.2,0,1.8,0.1c0.1,2.8,0.3,5.6,0.3,8.4c0,2.7-0.8,3.4-3.5,3.6c-3.2,0.2-4.5-0.8-4.7-3.6c-0.1-1.5,0.1-3,0.2-4.4
			C47.4,47.9,46.4,45.8,48,44.9z"/>
		<path class="st6" d="M49,21.9c1.1,0.3,2.1,0.8,3.2,1c1.8,0.3,2.5,0.6,0.8,2.2c-0.9,0.9,2.5,1.5,0.4,2.6c-1.6,0.9-3.4,2-5.4,0.6
			c-2.4-1.8-2.7-2.9-0.7-4.3C48.3,23.4,48.9,22.9,49,21.9z"/>
		<path class="st7" d="M52.2,19.9c-0.8,1.2-2,1.2-3.2,1.2c-0.2-0.9-1.1-1.9,0.1-2.6C50.8,17.4,51.5,18.8,52.2,19.9z"/>
		<path class="st8" d="M50.1,63c0.9,0.2,2.2-0.4,2.3,1c0.1,1.2-1.2,1.6-2.1,1.6c-1.1,0.1-2.6-0.3-2.6-1.6
			C47.8,62.7,49.2,63.2,50.1,63z"/>
		<path class="st9" d="M48,25.3c0.2,0.1,0.6,0.2,0.7,0.4c0.1,0.5,0,0.9-0.6,0.9c-0.2,0-0.7-0.2-0.7-0.4C47.2,25.8,47.5,25.4,48,25.3
			z"/>
	</g>
</g>
</svg>
