<?xml version="1.0" encoding="utf-8"?>
<!-- Generator: Adobe Illustrator 19.0.0, SVG Export Plug-In . SVG Version: 6.00 Build 0)  -->
<svg version="1.1" id="Layer_1" xmlns="http://www.w3.org/2000/svg" xmlns:xlink="http://www.w3.org/1999/xlink" x="0px" y="0px"
	 viewBox="0 0 99 99" style="enable-background:new 0 0 99 99;" xml:space="preserve">
<style type="text/css">
	.st0{fill-rule:evenodd;clip-rule:evenodd;fill:#33363E;}
	.st1{fill-rule:evenodd;clip-rule:evenodd;fill:#A5B12E;}
	.st2{fill-rule:evenodd;clip-rule:evenodd;fill:#636913;}
	.st3{fill-rule:evenodd;clip-rule:evenodd;fill:#F7F4D6;}
	.st4{fill-rule:evenodd;clip-rule:evenodd;fill:#6F6F3F;}
	.st5{fill-rule:evenodd;clip-rule:evenodd;fill:#7E7D52;}
	.st6{fill-rule:evenodd;clip-rule:evenodd;fill:#98966E;}
	.st7{fill-rule:evenodd;clip-rule:evenodd;fill:#EAEAB4;}
	.st8{fill-rule:evenodd;clip-rule:evenodd;fill:#EFEFBF;}
	.st9{fill-rule:evenodd;clip-rule:evenodd;fill:#686B21;}
	.st10{fill-rule:evenodd;clip-rule:evenodd;fill:#63662A;}
	.st11{fill-rule:evenodd;clip-rule:evenodd;fill:#989960;}
	.st12{fill-rule:evenodd;clip-rule:evenodd;fill:#EBEBB6;}
</style>
<g>
	<g>
		<path class="st0" d="M100,50.5c0,15.8,0,31.6,0,47.4c0,1.5,0,2.2-1.9,2.1c-31.6-0.1-63.3-0.1-94.9,0c-2,0-2.2-0.6-2.2-2.3
			C1,66.2,1,34.8,1,3.3c0-1.7,0.1-2.4,2.2-2.4C34.8,1,66.4,1,98,0.9c1.9,0,2,0.5,2,2.1C100,18.9,100,34.7,100,50.5z"/>
		<path class="st1" d="M57.9,92c-2.8,2.5-6.2,2.1-9.5,1.8C25.9,92.3,11.9,76.7,7.8,61C3,42.5,11.5,22,27.9,12.5
			C49.4,0,74.6,7.3,87,26.8c6,9.3,8.7,19.8,5.8,31c-2.3,1.4-3.8-0.1-5.1-1.6C80.3,48.8,72.4,42,65.8,33.9c-1.2-1.4-2.9-1.5-4.2-2.4
			c-6.1-1.9-12.3-2.7-18.7-1.1c-2.8,0.7-4.5,2.4-4.4,5.2c0.1,9.5-0.7,18.9-0.1,28.4c0.2,3.7,2.1,5.3,5.7,5.6c3.3,0.2,6.6,0.5,10,0.2
			c2.8-0.3,5.7-0.5,8.3,0.8c2.3,3.2-0.1,4.1-2.5,4.5c-3.8,0.6-7.6,0.2-11.4,0.3c-0.9,0-2.2-0.3-2.5,0.9c-0.2,0.8,0.6,1.5,1.2,2
			c3,3.1,6,6.1,8.9,9.3C57.3,89,58.3,90.1,57.9,92z"/>
		<path class="st2" d="M64.1,30c3.2,2.1,5.6,5.2,8.3,7.8c6.8,6.6,13.5,13.3,20.3,19.9c-0.3,6.9-3.1,13-7.3,18.1
			C79.8,82.8,73.4,89,64.3,91.5C62.1,92,60,92.1,57.9,92c-4.9-2.8-7.6-7.8-11.8-11.3c-2-1.7-3.8-3.7-5.6-5.6c-0.5-0.5-1-1-0.6-1.7
			c0.2-0.3,0.9-0.3,1.4-0.3c5.6,0,11.3,0,16.9,0c1.6,0,3.4,0.6,4.7-0.9c-2.5-5.6-0.4-11.5-1-17.2c-0.6-6.4-0.4-12.9-0.2-19.4
			C61.8,33.5,61.7,31.1,64.1,30z"/>
		<path class="st3" d="M64.1,30c0,12.2,0,24.3-0.1,36.5c0,1.9,0.6,4.1-1.2,5.6c-7.7,0-15.3,0.1-23,0c-3.5,0-3.9-0.4-3.9-3.7
			C36,56.3,36,44.1,36.1,32c0-3.4,0.8-4.1,4.2-4.1c6.8-0.1,13.7,0,20.5,0C62.4,27.8,63.8,28.2,64.1,30z"/>
		<path class="st4" d="M49.9,67.9c-5.1-0.1-9.9-5.1-9.8-10.1c0.2-5.2,5.1-9.8,10.2-9.7c5.2,0.1,9.8,5,9.7,10.1
			C59.8,63.4,55,68,49.9,67.9z"/>
		<path class="st5" d="M55.9,34.1c1.4,1.4,1.4,3.3,1.3,5.1c-0.2,3.5-3.3,6.4-6.8,6.5c-3.5,0.1-6.9-2.6-7.4-6c-0.3-2-0.2-3.9,1.2-5.6
			c0.9-0.2,1.3,0.3,1.6,0.9c0.4,1-0.4,2-0.2,2.9c0.4,2.2,1.9,3.6,4,3.8c2.4,0.3,3.5-1.3,4.2-3.4c0.3-1.1,0-2.3,0.4-3.4
			C54.5,34.2,55,33.8,55.9,34.1z"/>
		<path class="st6" d="M55.9,34.1c-0.3,0.3-0.6,0.7-0.9,1c-3.3,0.1-6.6,0-9.9,0.1c-0.3-0.4-0.6-0.7-0.9-1.1
			C48.1,29.7,51.9,29.7,55.9,34.1z"/>
		<path class="st7" d="M49.9,50c4.4,0,7.9,3.3,8.1,7.7c0.2,4.6-3.3,8.3-7.9,8.3c-4.6,0-8.2-3.5-8.1-8.1C42.1,53.5,45.6,50.1,49.9,50
			z"/>
		<path class="st8" d="M45.1,35.1c4.1-3.1,5.7-3.1,9.9-0.1c2,5.6-0.9,9.8-6.1,8.9C45.1,43.3,43.6,39.8,45.1,35.1z"/>
		<path class="st9" d="M50.1,63.7c-2.9,0-5.7-2.9-5.7-5.8c0.1-2.7,2.7-5.4,5.4-5.6c2.8-0.1,5.9,2.7,6,5.5
			C55.9,60.6,52.9,63.7,50.1,63.7z"/>
		<path class="st10" d="M47.1,39.9c-0.6-1.9-0.5-3.7,1.5-4.6c1.8-0.8,3.5-0.4,4.5,1.6C52.6,40.7,50.1,40.9,47.1,39.9z"/>
		<path class="st11" d="M47.1,39.9c1.9-1.2,4.6-0.8,6-3c1.6,2.3,0.2,3.8-1.6,4.8C49.6,42.6,48,42,47.1,39.9z"/>
		<path class="st12" d="M47.8,57.6c-0.7-0.1-1.5,0-1.5-0.9c0-1.3,0.9-2,2-2.4c0.7-0.2,1.2,0.2,1.3,1C49.7,56.7,49.2,57.5,47.8,57.6z
			"/>
	</g>
</g>
</svg>
