<?xml version="1.0" encoding="utf-8"?>
<!-- Generator: Adobe Illustrator 19.0.0, SVG Export Plug-In . SVG Version: 6.00 Build 0)  -->
<svg version="1.1" id="Layer_1" xmlns="http://www.w3.org/2000/svg" xmlns:xlink="http://www.w3.org/1999/xlink" x="0px" y="0px"
	 viewBox="0 0 99 99" style="enable-background:new 0 0 99 99;" xml:space="preserve">
<style type="text/css">
	.st0{fill-rule:evenodd;clip-rule:evenodd;fill:#33363F;}
	.st1{fill-rule:evenodd;clip-rule:evenodd;fill:#EDB324;}
	.st2{fill-rule:evenodd;clip-rule:evenodd;fill:#8E6819;}
	.st3{fill-rule:evenodd;clip-rule:evenodd;fill:#F8F3D4;}
	.st4{fill-rule:evenodd;clip-rule:evenodd;fill:#F8EFD4;}
	.st5{fill-rule:evenodd;clip-rule:evenodd;fill:#F7F0C6;}
	.st6{fill-rule:evenodd;clip-rule:evenodd;fill:#F4EDB7;}
	.st7{fill-rule:evenodd;clip-rule:evenodd;fill:#8E7635;}
	.st8{fill-rule:evenodd;clip-rule:evenodd;fill:#91783E;}
	.st9{fill-rule:evenodd;clip-rule:evenodd;fill:#8F7253;}
</style>
<g>
	<g>
		<path class="st0" d="M1,1c32.9,0,65.9,0,98.9,0c0,32.8,0,65.7,0,98.8c-32.9,0-65.9,0-98.9,0C1,67,1,34,1,1z"/>
		<path class="st1" d="M49.8,94.7c-15.3-0.3-27.1-7.1-35.5-19.7c-11.5-17.4-9-40.1,5.8-54.9c19.5-19.4,52-16.1,67.1,6.9
			c3.6,5.5,6,11.4,6.8,18c0.9,2.6,0.4,5.2,0.3,7.7c-2.7,2-4.2,0.1-5.7-1.4c-5.4-5.2-10.8-10.4-15.8-16c-1.1-1.3-2.1-2.5-3.9-2.8
			c-2.1-0.8-2.6-2.9-4-4.3c-3.6-3.4-6.9-3.3-10,0.4c-0.2,0.6-0.4,1.3-0.7,1.9c-0.9,1.1-1.8,2.3-1.8,3.9c-0.4,1.3,0.1,2.5,0,3.8
			c-0.3,1-0.6,2.1,0.1,3.1c0.2,1.4,0.8,2.8,0,4.2c-4.7,2.4-6.3,7.1-8,11.5c-2.1,5.5-4.1,11.1-7,16.3c-0.8,1.4-1.2,2.9-0.4,4.4
			c0.7,1.5,2.8,1.2,3.4,2.8c1.2,4.1,5.5,5.5,7.7,8.7C49.3,90.9,51.5,92.2,49.8,94.7z"/>
		<path class="st2" d="M69.8,30.9c1.5-1.2,2.1,0.5,2.8,1.1c5.7,5.6,11.3,11.3,17,16.9c1.2,1.1,2.1,2.6,4,3.4c1-2.4,0-4.9,0.5-7.2
			c1.6,1.9,1.1,4.2,1,6.2C94,65.6,88.3,77.6,76.8,86.5c-3.3,2.6-7.2,4.1-11,5.6c-5.1,2-10.4,3.7-16,2.6c-2.8-3.6-6.4-6.4-9.4-9.8
			c-0.8-0.9-2.4-1.4-1.7-3.1c7-9.3,10.4-20.4,16.2-30.3c-0.6-2-2.4-2.9-3-4.4c-0.1-0.5-0.2-1-0.1-1.5c0-0.2,0.1-0.5,0.1-0.7
			c-0.6-1-1.3-2-1.9-2.9c2.6-2.5,4.5,0.2,6.5,1c2,0.8,3.8,2.1,5.6-0.3c1-0.5,1.7-1.2,2.3-2.1c0.9-1.2,1.9-2.3,2.4-3.7
			c0.3-1.1,0.7-2.1,1.1-3.2C68.2,32.6,68.7,31.6,69.8,30.9z"/>
		<path class="st3" d="M52.9,45.7c2,1.1,4,2.3,6.2,3.5c-2,5-4.9,9.5-7.3,14.1c-2.8,5.3-5.7,10.4-8.5,15.7c-1,1.9-2.2,3.3-4.6,2.8
			c-0.8-1.2-2.6-0.6-3.3-2c-1.1-2.3-0.7-4.6,0.2-6.8c2.6-6.6,5.2-13.3,8-19.8c1.3-3,1.4-6.6,3.9-9c1.6,0.2,3.1,0.5,4.5,0.7l0,0
			C52.3,45.3,52.6,45.5,52.9,45.7z"/>
		<path class="st4" d="M69.8,30.9c0.1,1.3,0.1,2.7,0.2,4c-0.9,0.8-2,1.1-3.1,0.6c-4.7-2.1-10.2-3-13.4-7.7c-0.3-0.5-0.7-1.1-1-1.6
			c4.4-5,11.9-4.1,15.7,1.7C68.8,28.9,69.2,29.9,69.8,30.9z"/>
		<path class="st5" d="M68.8,38.3c-0.9,1.3-1.8,2.6-2.8,3.9c-5.7,1.1-9.5-3.2-14.1-5.1c-1-0.4-1.8-1.4-2.8-2
			c-1.5-1.9-0.3-3.5,0.2-5.2c1.4-0.9,2.6,0.4,3.8,0C58.9,31.8,64.7,33.4,68.8,38.3z"/>
		<path class="st6" d="M63.6,44.2c0.3,1.9-1.2,2-2.5,2.5c-3.9-1-7.1-3.7-11.1-4.6c-0.6-1.1-2.6-1.5-1.7-3.5c0.6-0.8,1.6-0.6,2.5-0.7
			C55.7,38.7,60.1,40.5,63.6,44.2z"/>
		<path class="st7" d="M68.8,38.3c-5.1-3-11-4.5-15.7-8.4c0.1-0.7,0.2-1.4,0.2-2c4.3,2,8.6,4,12.9,5.9c1.2,0.5,2.2,1.4,3.7,1.1
			C69.6,36,69.2,37.2,68.8,38.3z"/>
		<path class="st8" d="M63.6,44.2c-4.5-1.5-8.8-3.5-12.7-6.3c-0.5-0.9-1.1-1.9-1.6-2.8c4,0.7,7.3,3.1,10.9,4.6c2,0.8,4,1.7,5.9,2.5
			C65.8,43.6,64.8,44,63.6,44.2z"/>
		<path class="st1" d="M52.9,45.7c-0.5,0.1-0.9-0.1-0.9-0.7C52.3,45.2,52.6,45.5,52.9,45.7z"/>
		<path class="st9" d="M40.6,72.2c1.9,3,1.2,4.4-2.4,4.5C38.4,74.8,39,73.3,40.6,72.2z"/>
	</g>
</g>
</svg>
