<?xml version="1.0" encoding="utf-8"?>
<!-- Generator: Adobe Illustrator 19.0.0, SVG Export Plug-In . SVG Version: 6.00 Build 0)  -->
<svg version="1.1" id="Layer_1" xmlns="http://www.w3.org/2000/svg" xmlns:xlink="http://www.w3.org/1999/xlink" x="0px" y="0px"
	 viewBox="0 0 99 99" style="enable-background:new 0 0 99 99;" xml:space="preserve">
<style type="text/css">
	.st0{fill-rule:evenodd;clip-rule:evenodd;fill:#33363F;}
	.st1{fill-rule:evenodd;clip-rule:evenodd;fill:#5A8670;}
	.st2{fill-rule:evenodd;clip-rule:evenodd;fill:#3E5C4C;}
	.st3{fill-rule:evenodd;clip-rule:evenodd;fill:#F4F3DB;}
	.st4{fill-rule:evenodd;clip-rule:evenodd;fill:#EEEFD9;}
	.st5{fill-rule:evenodd;clip-rule:evenodd;fill:#435F4E;}
	.st6{fill-rule:evenodd;clip-rule:evenodd;fill:#E0EDD9;}
</style>
<g>
	<g>
		<path class="st0" d="M50,100c-15.7,0-31.3,0-47,0.1c-1.7,0-2.1-0.3-2.1-2.1C1,66.3,1,34.7,0.9,3c0-1.7,0.3-2.1,2.1-2.1
			C34.7,1,66.3,1,98,0.9c1.7,0,2.1,0.3,2.1,2.1c-0.1,31.7-0.1,63.3,0,95c0,1.7-0.3,2.1-2.1,2.1C82,100,66,100,50,100z"/>
		<path class="st1" d="M59.9,93.9c-1,0-2,0-3,0.2C32.8,97.9,12.7,80.6,8.4,60.7C3,35.7,18.9,12.5,43.7,7.9c21-3.9,42,9.8,48.5,28.1
			c3,8.6,3.4,17.1,1.3,25.9c-0.2,1-0.4,2-0.6,2.9c-2.7,2.3-4.5,0.2-6.2-1.5C81,57.9,75.5,52.3,70,46.6c-3.6-2.6-6.4-6.1-10.5-8
			c-2.2-4.5-4.7-8.8-9.7-10.8c-2.2-2.9-4.7-3.6-7.6-1c-1.6,1.4-3.4,1.8-5.5,1.7c-1-0.1-2.6-0.6-2.4,1.5c0,2.1,0.6,4,2.3,5.3
			c4.4,3.2,7.2,8,11.2,11.7c0.7,2.5,0.6,5,1,7.5c0.1,1.3,0.7,2.5,0.5,3.8c-2.3,4.3-2.2,8.9-1.7,13.5c0.4,3.9,1.8,7.3,5.2,9.7
			c0.8,3.2,4,4.3,5.9,6.6C60.2,89.7,62.2,91.4,59.9,93.9z"/>
		<path class="st2" d="M48,57.7c-0.4-0.9-0.7-1.7-1.1-2.6c2.2-3.1,3.4-6.1,2.3-10.4C48.1,40,49,34.9,49,30c0-1.4,0.7-2.5,2.2-2.9
			c1-0.7,1.7-0.4,2.6,0.3c2.6,1.9,4.3,4.7,6.7,6.6c2.4,1.9,1.2,2.9-0.4,4.2c2.1,1.5,3.8,3.5,5.8,5.1c1.3,1,2.4,2.9,4.6,1.9
			c2,0.3,3,1.9,4.3,3.2c4.7,4.7,9.4,9.4,14.1,14c1.1,1.1,2.1,2.7,4,2.6c-4.5,11.7-12.4,20.3-23.6,25.9c-3,1.5-6.2,2.5-9.4,3.1
			c0.1-2-1.5-2.8-2.6-4.1c-2.1-2.4-4.8-4.1-6.3-7c0.5-0.9,1.1-1.7,2.2-1.9c5.8-1.4,7.4-5.5,7.4-10.9c0.1-6.1-0.6-12.3,1.2-18.4
			c0.3-0.9,0.4-2.3-0.8-2.5c-1.3-0.3-1.4,1.1-1.7,2c-1.4,4.7-0.8,9.6-0.9,14.4c-0.1,2.7,0.1,5.3-0.3,8c-0.3,2.3-1.5,3.7-3.9,3.8
			c-2.6,0.1-4-1.3-4.4-3.8c-0.4-3-0.4-6-0.3-9C49.6,62.1,48.1,60.1,48,57.7z"/>
		<path class="st3" d="M48,57.7c3.9,0.7,3.9,0.7,4,4.1c0.1,3.8,0,7.7,0,11.5c0,1.4,0.3,2.8,2,2.9c1.8,0,1.9-1.5,1.9-2.9
			c0-5.2,0-10.3,0-15.5c0-4.5,0.8-8.9,2.3-13.2c0.5-1.6,1.4-2.8,3.1-0.8c0.2,0.3,0.5,0.5,0.7,0.7c1.3,1.3,3,2.4,3.8,3.9
			c0.8,1.8-1.2,3.2-1.8,4.9c-0.9,2.4-1.3,4.8-1.3,7.3c0,3.7,0,7.3,0,11c0,9-2.8,11.6-11.7,11.2c-3.8-2.1-5.7-5.2-5.6-9.6
			c0.1-3.8,0-7.6,0-11.4C45.4,59.9,45.6,58,48,57.7z"/>
		<path class="st4" d="M51.2,27c0.3,5.7,1,11.5,0.1,17.2c-0.1,0.8,0.2,1.1,0.7,1.6c2.8,3,2.3,2.8-0.1,6.5c-1.4,2.1-2.6,3-4.9,2.8
			c-1.5-2.6-0.2-5.4-0.9-8.1c-2.1-2.9-2.8-6.3-2.5-9.8c0.3-3.6-0.7-5.7-5-5.1c-2.1,0.3-4.4,0.3-5.7-2c-1.3-0.1-2.6-0.3-3.9-0.3
			c-0.9-0.1-1.8-0.4-1.7-1.4c0-0.9,1-1.3,1.8-1.3c1.5-0.1,3-0.3,4.4-0.1c3.3,0.4,6.3,0,8.6-2.6c0.3-0.4,0.8-0.6,1.2-0.8
			C47.5,21.1,49.9,22.2,51.2,27z"/>
		<path class="st5" d="M33,30.2c3.7-0.5,7.6,0,11-2.2c1.8-1.1,2.3,0.2,2.3,1.8c0,5.8-0.1,11.6-0.2,17.3c-2.9-1.6-5.4-3.9-7.3-6.6
			c-1.9-2.6-5-3.7-6.7-6.6C30.7,31.6,30.4,31.8,33,30.2z"/>
		<path class="st6" d="M70.5,45.1c0.9,1.7-0.4,3.2-1.4,2.4c-3.5-2.6-7.4-4.9-9-9.4c1.6-0.7,2.7,0.1,3.9,1.2
			C66.1,41.3,68.3,43.2,70.5,45.1z"/>
	</g>
</g>
</svg>
