<?xml version="1.0" encoding="utf-8"?>
<!-- Generator: Adobe Illustrator 19.0.0, SVG Export Plug-In . SVG Version: 6.00 Build 0)  -->
<svg version="1.1" id="Layer_1" xmlns="http://www.w3.org/2000/svg" xmlns:xlink="http://www.w3.org/1999/xlink" x="0px" y="0px"
	 viewBox="0 0 99 99" style="enable-background:new 0 0 99 99;" xml:space="preserve">
<style type="text/css">
	.st0{fill-rule:evenodd;clip-rule:evenodd;fill:#33363F;}
	.st1{fill-rule:evenodd;clip-rule:evenodd;fill:#0386BF;}
	.st2{fill-rule:evenodd;clip-rule:evenodd;fill:#03587C;}
	.st3{fill-rule:evenodd;clip-rule:evenodd;fill:#105772;}
	.st4{fill-rule:evenodd;clip-rule:evenodd;fill:#E2F2E3;}
	.st5{fill-rule:evenodd;clip-rule:evenodd;fill:#D7F0E5;}
	.st6{fill-rule:evenodd;clip-rule:evenodd;fill:#C0EAED;}
	.st7{fill-rule:evenodd;clip-rule:evenodd;fill:#C1DEDC;}
	.st8{fill-rule:evenodd;clip-rule:evenodd;fill:#E2F4E1;}
	.st9{fill-rule:evenodd;clip-rule:evenodd;fill:#415A57;}
	.st10{fill-rule:evenodd;clip-rule:evenodd;fill:#135771;}
	.st11{fill-rule:evenodd;clip-rule:evenodd;fill:#E9F1E4;}
	.st12{fill-rule:evenodd;clip-rule:evenodd;fill:#C3EAEB;}
	.st13{fill-rule:evenodd;clip-rule:evenodd;fill:#D1E7E6;}
	.st14{fill-rule:evenodd;clip-rule:evenodd;fill:#45636C;}
	.st15{fill-rule:evenodd;clip-rule:evenodd;fill:#E2F0E4;}
	.st16{fill-rule:evenodd;clip-rule:evenodd;fill:#EBF5E7;}
	.st17{fill-rule:evenodd;clip-rule:evenodd;fill:#E9F4EA;}
	.st18{fill-rule:evenodd;clip-rule:evenodd;fill:#E6F6E9;}
	.st19{fill-rule:evenodd;clip-rule:evenodd;fill:#849994;}
	.st20{fill-rule:evenodd;clip-rule:evenodd;fill:#809796;}
	.st21{fill-rule:evenodd;clip-rule:evenodd;fill:#4C625C;}
	.st22{fill-rule:evenodd;clip-rule:evenodd;fill:#607570;}
	.st23{fill-rule:evenodd;clip-rule:evenodd;fill:#587470;}
	.st24{fill-rule:evenodd;clip-rule:evenodd;fill:#3E5154;}
	.st25{fill-rule:evenodd;clip-rule:evenodd;fill:#2D525B;}
	.st26{fill-rule:evenodd;clip-rule:evenodd;fill:#5C7769;}
	.st27{fill-rule:evenodd;clip-rule:evenodd;fill:#47554A;}
	.st28{fill-rule:evenodd;clip-rule:evenodd;fill:#ECF1E0;}
	.st29{fill-rule:evenodd;clip-rule:evenodd;fill:#62716A;}
	.st30{fill-rule:evenodd;clip-rule:evenodd;fill:#405548;}
	.st31{fill-rule:evenodd;clip-rule:evenodd;fill:#A8BEB5;}
	.st32{fill-rule:evenodd;clip-rule:evenodd;fill:#48564C;}
	.st33{fill-rule:evenodd;clip-rule:evenodd;fill:#4A534A;}
	.st34{fill-rule:evenodd;clip-rule:evenodd;fill:#4C635F;}
	.st35{fill-rule:evenodd;clip-rule:evenodd;fill:#3A595F;}
	.st36{fill-rule:evenodd;clip-rule:evenodd;fill:#718077;}
	.st37{fill-rule:evenodd;clip-rule:evenodd;fill:#5E7B7C;}
	.st38{fill-rule:evenodd;clip-rule:evenodd;fill:#627773;}
	.st39{fill-rule:evenodd;clip-rule:evenodd;fill:#66726E;}
	.st40{fill-rule:evenodd;clip-rule:evenodd;fill:#627871;}
	.st41{fill-rule:evenodd;clip-rule:evenodd;fill:#6C827B;}
</style>
<g>
	<g>
		<path class="st0" d="M1,50.2C1,34.6,1,18.9,1,3.3c0-1.8,0.4-2.3,2.3-2.3C34.7,1,66.2,1,97.6,0.9c2.4,0,2.4,0.8,2.4,2.7
			c-0.1,31.3-0.1,62.6,0,93.9c0,2.1-0.4,2.6-2.5,2.6c-31.3-0.1-62.6-0.1-93.9,0C1,100.1,1,99.2,1,97.1C1,81.5,1,65.9,1,50.2z"/>
		<path class="st1" d="M40.9,92.2c-5.4,0-10-2.6-14.2-5.3C19.3,82,13.4,75.5,9.9,67.2C5,55.4,4.9,43.7,10.3,32
			c3.5-7.5,8.5-13.8,15.4-18.3c9.8-6.4,20.3-9,32.2-6.7c8.8,1.7,16.4,5.5,22.7,11.4c6.8,6.4,10.9,14.5,12.4,23.8
			c0.7,4.6,1.8,9.2,0,13.8c-2.4,3.1-4.2,0.9-6.1-0.6c-3.9-3.3-6.7-7.5-10.8-10.6c-1.3-1.1-3.3-0.7-4.3-2.2c-1.3-3.1-3.4-5.6-6.1-7.6
			c-1.8-1-3.1,0.6-4.6,0.9c-1,0.2-1.8,0-2.7-0.5c-6.9-2.6-13.8-3-20.8-0.6c-0.5,1.3-1.2,2.5-2.5,3.2c-1.6,0.7-3.2,1.5-5,1.4
			c-0.5,0-1,0-1.5,0c-3.5-0.3-4.4,1.7-3.9,4.7c0.8,4.6,0.9,9.2,0,13.8c-0.5,2.7,0.8,4.8,2.1,6.9c3.4,6.3,9.4,10.2,14.4,15
			c2.5,2.4,5.1,4.7,7.5,7.3c1.3,1.4,2.6,2.9,1.5,4.9c-0.9,1.6-2.8,1.6-4.5,1.5C44,93.4,42.4,93.1,40.9,92.2z"/>
		<path class="st2" d="M77.1,43.1c4.4,3.5,8.1,7.7,12.1,11.6c1,1,1.9,2.4,3.7,1.4c-0.6,6.3-2.7,12-6,17.5
			c-4.4,7.2-10.4,12.6-17.7,15.8c-7.6,3.4-15.9,6-24.7,4.7c-1.4-0.2-3.1,0.3-3.5-1.8c2.2-0.6,4.1,1.2,6.3,0.6
			c2.1-0.6,2.6-1.5,1.1-2.9c-3-2.8-5.6-6-9-8.4c-3.4-2.4-5.4-6.1-8.4-9c-2-2-4.8-3.5-6-6.3c0.5-1.1,1.4-1.5,2.5-1.6
			c3.4,0.2,4.4,3.5,6.8,5.1c1.7,1.4,3.8,0.5,5.6,0.8c5.2,0.1,10.5-0.1,15.7,0.1c3.5,0.1,6.4-0.9,8.8-3.4c0.3-0.4,0.5-0.8,0.7-1.2
			c0.8-1.5,1.1-3.2,2-4.7c0.3-0.4,0.8-0.7,1.2-0.9c1.2-0.4,2.5-0.7,3.7-1.2c3.8-0.6,3.1-3.6,3.1-6.1C75.3,49.6,74.3,46,77.1,43.1z"
			/>
		<path class="st3" d="M35.1,37c0.6-1.1,0.4-2.1-0.2-3c0.6-0.9,1.5-1.2,2.6-1.1c6.3,0.4,12.6,0.5,18.8,1.2c0.6,0,1.2,0,1.7,0
			c0.3,0,0.6,0,0.9,0c0.5,0.3,1.1,0.6,1.6,1c2.4,0.1,4.6-0.5,6.4-2.1c2.9,2,4,5.6,7.1,7.5c0.7,0.4-1.6,0.4-1.9,1.4
			c-0.1,0.5-0.3,0.9-0.7,1.2c-0.4,0.2-0.9,0.4-1.4,0.4c-1.6-0.1-3.3-0.4-4.9-0.7c-0.7-0.1-1.3-0.1-2-0.2c-1.7-0.3-3.4-0.4-5.2-0.1
			c-0.9,0-1.7-0.3-2.6-0.4c-1.5-0.2-3-0.5-4.5-0.5c-0.9,0-1.7-0.2-2.6-0.3c-1.3-0.1-2.7-0.2-4-0.4c-0.4,0-0.9-0.1-1.3-0.1
			c-1.8,0-3.4-0.3-5.1-0.9c-0.4-0.1-0.8-0.2-1.3-0.3c-0.4-0.1-0.8-0.3-1.1-0.6c-0.3-0.3-0.4-0.7-0.5-1.2C35,37.4,35,37.2,35.1,37z"
			/>
		<path class="st4" d="M28.1,66c-1,0.1-2.1,0.1-3.1,0.2c-2-0.7-1.9-2.4-1.9-4.1c0-7.1,0.1-14.2,0.1-21.4c0-1.4-0.7-3.2,1.1-4
			c1.8-0.8,3.6-0.6,4.9,1.2c1.3,1.3,1.4,2.9,1.4,4.6c0,6.9,0.2,13.8-0.1,20.8C30.2,64.6,29.3,65.5,28.1,66z"/>
		<path class="st5" d="M71.3,42.1c0.3,0,0.6-0.2,0.8-0.5c1.7,0.4,3.8-0.6,5,1.4c0,4.5-0.1,8.9-0.1,13.4c-0.1,4.4-0.1,4.4-4.8,4.5
			c-0.6-0.2-1.5-0.5-1.6-1C69.3,54,68,47.9,71.3,42.1z"/>
		<path class="st6" d="M58.5,34.9c-3.8,0.7-7.6,0.2-11.3-0.2c-4.1-0.5-8.2-0.7-12.3-0.7c-0.4-0.6-1.6-0.7-1.5-1.8
			c0-0.5,0.6-0.9,1-0.9c8,1.1,16.3-0.3,24.1,2.3c0.1,0,0.2,0.2,0.3,0.4l0,0C58.7,34.2,58.5,34.5,58.5,34.9z"/>
		<path class="st7" d="M30,37.8c1.6-1.2,3.4-0.6,5.1-0.8l0,0c0.3,0.4,0.6,0.7,1,0.9l0.2,0.3c1.2,1.1,1.3,2.6,1.3,4.1
			c-0.1,7,0.3,14.1-0.2,21.1c-0.3,0.9-0.8,1.6-1.8,1.9c-2.3-0.8-2.7-2.8-2.9-4.9c0-0.8,0-1.6,0-2.5c0.1-4.3,0.2-8.6,0.1-12.9
			c0-0.5-0.1-0.9-0.1-1.4c0.3-2.3-1.4-3.4-2.8-4.6C29.5,38.5,29.6,38.1,30,37.8z"/>
		<path class="st8" d="M66.9,32.8c0,0.2,0,0.3,0.1,0.5c0.3,2.1-0.4,3.7-2.4,4.3c-2.3,0.7-3.3-1-4-2.8C62.2,30.8,62.5,30.7,66.9,32.8
			z"/>
		<path class="st9" d="M30,37.8c0.1,0.4,0.1,0.8,0.2,1.2c2.6,2.2,1.2,5.3,1.7,7.9c1,5.6,0,11.1-1,16.6c-0.5,0.6-1,0.7-1.7,0.5
			c0-8.7,0-17.4,0-26.2C29.4,37.8,29.7,37.8,30,37.8z"/>
		<path class="st10" d="M29.1,64c0.3,0,0.5,0,0.8,0c1.8-0.8,3.5-1,5,0.7c0.4-0.3,0.8-0.5,1.2-0.8c0.3-0.3,0.6-0.7,1-1
			c1.8-1,3.8-1.5,5.6-2.3c0.4-0.1,0.9-0.1,1.3-0.1c1.5,0.2,2.9,0.9,4.4,0.5c0.9-0.2,1.7-0.5,2.6-0.5c1.8,0.4,3.6,0.2,5.3-0.1
			c0.7,0,1.4-0.1,2.1-0.2c1.2-0.2,2.3-0.4,3.5,0.2c1,0.5,2,0.8,3.1,0.4c0.5-0.1,0.9-0.1,1.4-0.1C67,61,67.6,61.3,68,62
			c0.3,1.8-0.9,3.3-1,5c-4.3,2.2-9.1,0.4-13.5,1.9c-0.8,0.3-1.8,0.1-2.7,0.1c1,0,2,0.1,3-0.1c4.4-1,8.9-0.9,13.3-0.9
			c1.1,1.2,0.4,1.5-0.8,2c-6.3,2.6-13,2-19.6,2c-2.5,0-5,0-7.5,0c-2-0.9-4-1.9-6.1-0.1c-2.4-1.3-2.7-4.6-5.1-5.9
			C28.4,65.4,28.8,64.7,29.1,64z"/>
		<path class="st11" d="M68,62c-0.6-0.1-1.2-0.1-1.8-0.2c-0.9-0.2-1.7-0.5-2.2-1.4c-0.8-6-0.7-11.9-0.1-17.9c0.3-0.5,0.7-1,1.1-1.4
			c1.7-0.1,3.6-0.9,5.1,0.8c0.8,5.8,0.1,11.5,0.4,17.3c0.1,1.3-0.4,2.3-1.8,2.6l-0.4,0L68,62z"/>
		<path class="st12" d="M67.1,68c-2.8,1.8-6.1,1-9.2,1.5c-4.6,0.8-9.2,1-13.9,1.5c-1,0.1-2.2,0-2.1-1.4c0-0.9,0.9-1.4,1.8-1.4
			c7.8-0.2,15.5-2,23.4-1.3C67,67.3,67.1,67.7,67.1,68z"/>
		<path class="st13" d="M33.2,71.9c0-0.2-0.1-0.3-0.1-0.5c0.4-3.1,1.6-4.5,3.6-4.3c1.9,0.2,2.7,1.6,2.6,4.9
			C36.3,74.2,36.3,74.2,33.2,71.9z"/>
		<path class="st14" d="M68.7,61.8c1.6-1.2,1.2-2.9,1.3-4.5c0.1-5.1,0.1-10.2,0.1-15.4c0.4,0.1,0.8,0.1,1.2,0.2
			c-0.1,5.1-0.1,10.1-0.2,15.2c0,1.4,0.1,2.6,1.1,3.6C71.1,61.4,70,62.2,68.7,61.8z"/>
		<path class="st15" d="M43,62.1c-1.1,3.5-3.6,2.2-5.9,1.9c-1-8.6-0.9-17.1-0.1-25.7c2-0.2,4.1-1,5.7,0.9c1,0.7,1.6,1.7,1.6,2.9
			c0.2,5.8,0.2,11.6,0,17.4C44.3,60.5,43.7,61.3,43,62.1z"/>
		<path class="st16" d="M49.1,63c-2,1.2-3.9,1.8-5.3-0.9c-0.4-7.7-0.9-15.4,0.3-23c1.6-0.4,3.2-0.5,4.8,0c1.9,2.3,1.7,5,1.5,7.6
			C50.1,52.2,51.7,57.8,49.1,63z"/>
		<path class="st17" d="M56.2,62c-1.7,1.4-3.5,1.6-5.2,0c-1.4-7.3-1.6-14.7,0.1-22c1.7-1.1,3.3-1.2,4.9,0.1
			C58.4,47.4,58.2,54.7,56.2,62z"/>
		<path class="st18" d="M62,62.3c-1.3-0.1-2.6-0.3-4-0.4c-1.7-7-1.5-14-0.1-21c1.7-1.3,3.5-1.3,5.2,0.1c1.7,6.8,0.9,13.7,0.5,20.6
			C63.2,62.2,62.7,62.4,62,62.3z"/>
		<path class="st19" d="M51.1,40c0,7.3-0.1,14.7-0.1,22c-0.6,0.3-1.2,0.6-1.8,1C49.1,55,49,47.1,48.9,39.2
			C49.6,39.5,50.4,39.8,51.1,40z"/>
		<path class="st20" d="M57.9,40.9c0,7,0.1,14,0.1,21c-0.6,0-1.2,0.1-1.9,0.1C56.1,54.7,56,47.4,56,40.1
			C56.6,40.4,57.3,40.6,57.9,40.9z"/>
		<path class="st21" d="M37,38.3c0,8.6,0.1,17.1,0.1,25.7c-0.3,0-0.7,0-1,0.1c0-8.6,0.1-17.2,0.1-25.9C36.5,38.1,36.7,38.1,37,38.3z
			"/>
		<path class="st22" d="M44.1,39.1c-0.1,7.7-0.2,15.3-0.3,23c-0.3,0-0.5,0-0.8-0.1c-0.7-7.6-0.1-15.3-0.3-22.9
			C43.2,39.1,43.7,39.1,44.1,39.1z"/>
		<path class="st23" d="M62.9,61.9C63,54.9,63,48,63.1,41c0.7,0,1.3,0.1,2,0.1c-0.1,0.3-0.1,0.5-0.2,0.8c-0.4,6.4-0.8,12.7,0.2,19.1
			c0.4,0.3,0.7,0.6,1.1,0.9c-0.4,0.1-0.8,0.2-1.2,0.3C64.2,62.6,63.5,62.5,62.9,61.9z"/>
		<path class="st1" d="M36,37.9c-0.5-0.1-0.8-0.4-1-0.9C35.5,37.1,35.9,37.3,36,37.9z"/>
		<path class="st1" d="M58.5,34.9c0.1-0.3,0.3-0.7,0.4-1C58.8,34.2,58.6,34.6,58.5,34.9z"/>
		<path class="st24" d="M25.9,44.2c-0.5-0.1-0.8-0.4-0.8-0.9c0-0.8,0.5-1.2,1.2-1c0.3,0.1,0.6,0.7,0.6,1.1
			C26.9,43.9,26.5,44.3,25.9,44.2z"/>
		<path class="st25" d="M26.9,59.3c-0.1,0.5-0.4,0.8-1,0.8c-0.6-0.1-0.9-0.3-0.9-0.9c-0.1-0.9,0.5-1.1,1.2-1
			C26.7,58.3,27,58.7,26.9,59.3z"/>
		<path class="st26" d="M75.1,55.4c0.1,0.8-0.2,1.2-1,1.4c-0.6,0.1-0.9-0.2-1.1-0.7c-0.3-0.7,0-1.4,0.6-1.6
			C74.4,54.3,74.9,54.7,75.1,55.4z"/>
		<path class="st27" d="M75,46.9c0.1,0.6-0.3,0.8-0.8,1c-0.6,0.1-1-0.2-1-0.7c-0.1-0.7,0.1-1.3,1-1.2C74.7,46,75,46.3,75,46.9z"/>
		<path class="st28" d="M34.9,64.8c-1.8,0.4-3.5,0.8-5-0.7c0.1-8.4,0.2-16.7,0.3-25.1c1.3-0.7,2.7-1.5,3.9-0.1
			c1.2,1.3,1.4,2.8-0.1,4.2c-0.7,0.5-0.5,0.8,0.1,1.1c1.3,4.6,1.4,9.3-0.1,13.9c-0.8,0.6-0.8,1.2-0.2,2
			C35.7,61.2,34.8,63.1,34.9,64.8z"/>
		<path class="st29" d="M33.9,59.9c-1.3,0.1-2.4-0.1-1.9-1.7c0.4-1.3,1.3-1,2.2-0.3C34,58.6,34,59.3,33.9,59.9z"/>
		<path class="st30" d="M34.2,44.1c-0.4,0.6-0.9,1-1.6,0.7c-0.3-0.2-0.6-0.8-0.5-1.2c0.3-1.1,1.2-0.8,2-0.6
			C34.1,43.3,34.1,43.7,34.2,44.1z"/>
		<path class="st2" d="M62.9,61.9c0.7,0.1,1.4,0.2,2.1,0.3c0.1,0.3,0.1,0.6,0.2,1c0.2,1,1.4,2.3-0.6,2.7c-1.6,0.4-2.5-0.4-2.5-2
			c0-0.5,0-1,0-1.5C62.3,62.2,62.6,62,62.9,61.9z"/>
		<path class="st31" d="M65.1,60.9c-0.1-0.1-0.4-0.2-0.4-0.3c-1-6.3-1.3-12.5,0.2-18.8C64.9,48.2,65,54.6,65.1,60.9z"/>
		<path class="st32" d="M68.4,46.3c-0.2,0.7-0.6,1.1-1.3,1c-0.7-0.1-1.1-0.6-0.9-1.3c0.1-0.5,0.4-0.9,1-0.8
			C67.8,45.2,68.2,45.6,68.4,46.3z"/>
		<path class="st33" d="M66.9,55.1c0.7-0.1,1,0.3,1.1,0.8c0.1,0.8-0.3,1.2-1.1,1c-0.4-0.1-0.9-0.3-0.8-1
			C66.2,55.5,66.5,55.1,66.9,55.1z"/>
		<path class="st34" d="M39.5,57.1c0.8,0,1.4,0.2,1.4,1c0,0.8-0.5,1.2-1.2,1.2c-0.3,0-0.9-0.5-1-0.8C38.5,57.8,38.9,57.3,39.5,57.1z
			"/>
		<path class="st35" d="M40.1,45.1c-0.6,0.1-1-0.2-1.1-0.6c-0.1-0.4,0.2-1.1,0.5-1.2c0.6-0.3,1.2-0.1,1.3,0.8
			C40.9,44.7,40.5,44.9,40.1,45.1z"/>
		<path class="st36" d="M46.6,59c-0.8-0.1-1.4-0.5-1.3-1.3c0.1-0.8,0.6-1.5,1.6-1.4c0.8,0.1,1,0.7,1,1.5
			C47.9,58.6,47.2,58.9,46.6,59z"/>
		<path class="st37" d="M46.6,46c-0.7-0.1-1.3-0.5-1.2-1.2c0.1-0.8,0.6-1.5,1.6-1.2c0.7,0.1,1,0.7,1,1.4
			C47.8,45.9,47.2,45.9,46.6,46z"/>
		<path class="st38" d="M53.6,44.1c0.7,0.1,1.3,0.7,1.2,1.3c-0.1,0.8-0.7,1.5-1.7,1.2c-0.7-0.2-1.1-0.7-0.9-1.5
			C52.3,44.3,52.9,44.1,53.6,44.1z"/>
		<path class="st39" d="M53.5,58.5c-0.5-0.2-1.3-0.3-1.4-1.1c-0.1-1,0.6-1.4,1.4-1.4c0.7,0,1.2,0.5,1.2,1.2
			C54.8,57.9,54.2,58.3,53.5,58.5z"/>
		<path class="st40" d="M61.6,45.8c0,0.7-0.5,1.1-1.2,1.2c-0.6,0-1.3,0-1.4-0.8c-0.1-1,0.6-1.5,1.3-1.6C61,44.5,61.5,45.1,61.6,45.8
			z"/>
		<path class="st41" d="M60.4,58c-1.2-0.2-1.4-0.8-1.3-1.4c0.1-0.7,0.7-1.3,1.3-1.2c0.8,0.1,1.5,0.6,1.2,1.7
			C61.3,57.7,60.8,58.1,60.4,58z"/>
	</g>
</g>
</svg>
