<?xml version="1.0" encoding="utf-8"?>
<!-- Generator: Adobe Illustrator 19.0.0, SVG Export Plug-In . SVG Version: 6.00 Build 0)  -->
<svg version="1.1" id="Layer_1" xmlns="http://www.w3.org/2000/svg" xmlns:xlink="http://www.w3.org/1999/xlink" x="0px" y="0px"
	 viewBox="0 0 99 99" style="enable-background:new 0 0 99 99;" xml:space="preserve">
<style type="text/css">
	.st0{fill-rule:evenodd;clip-rule:evenodd;fill:#33363F;}
	.st1{fill-rule:evenodd;clip-rule:evenodd;fill:#9988B4;}
	.st2{fill-rule:evenodd;clip-rule:evenodd;fill:#5A506A;}
	.st3{fill-rule:evenodd;clip-rule:evenodd;fill:#F9F3DD;}
	.st4{fill-rule:evenodd;clip-rule:evenodd;fill:#665D62;}
	.st5{fill-rule:evenodd;clip-rule:evenodd;fill:#F2EEDE;}
	.st6{fill-rule:evenodd;clip-rule:evenodd;fill:#685E72;}
</style>
<g>
	<g>
		<path class="st0" d="M100,50.5c0,15.8,0,31.6,0,47.4c0,1.5,0,2.1-2,2.1c-31.6-0.1-63.3-0.1-94.9,0c-2,0-2.2-0.6-2.2-2.4
			C1,66.2,1,34.8,1,3.3c0-1.7,0.2-2.4,2.2-2.4C34.8,1,66.4,1,98.1,0.9c1.9,0,2,0.6,2,2.1C100,18.9,100,34.7,100,50.5z"/>
		<path class="st1" d="M59.8,93.8c-7.1,1.1-14.1,1.1-21.2-0.7c-16.5-4.3-31-20.4-31.9-39C6,38.7,11.3,26,23.4,16.5
			c17-13.3,40.9-12.1,56.2,2.3C89.4,28,94,39.2,94,52.5c0,2.9-1.2,5.5-1.1,8.4c-1.8,3.1-3.9,1.8-5.7,0.1c-4.6-4.5-9.6-8.8-13.6-13.9
			c-1.5-1.9-3.1-2.8-5.2-3.4c-1.2-0.7-1.9-1.9-2.6-3c-4.8-7.4-11.9-9.4-20-7.8c-7.1,1.4-12,5.9-13.7,13c-2.1,8.2,0.7,15.1,7,20.5
			c0.6,0.5,1.4,1,1.9,1.6c0.5,0.5,0.9,1.1,1.2,1.7c0.2,0.4,0.3,0.9,0.5,1.3c1.2,3.3,4.8,4,6.8,6.4c3.3,3.8,7.2,7.2,10.6,10.9
			C61.8,90.2,63.1,92.2,59.8,93.8z"/>
		<path class="st2" d="M69.9,42.1c1.5-1.3,2.1,0.4,2.7,1.1c5.6,5.5,11.1,11,16.7,16.6c1,1,1.9,2.6,3.7,1.2
			c-4,14.6-12.9,25-27.1,30.7c-2,0.8-3.7,2.3-6,2.2c1.5-1.7,0-2.6-1-3.6c-5-5-10-10-15-15c-1.2-1.2-3-2.2-2.8-4.4
			c1.6-2.8,4.1-1.4,6.3-1.3c11.7,0.6,19.3-4.9,21.5-15.6c0.5-2.3,0.3-4.6-0.1-6.9C68.5,45.3,67.8,43.3,69.9,42.1z"/>
		<path class="st3" d="M69.9,42.1c1.7,5.1,2.6,10.2,0.7,15.5c-3.9,11.2-15,17.1-26.7,13.9C43,71.3,42,71,41,70.8l0.1,0.2
			c-0.4-0.3-1-0.3-1.1-1c-2.1-1.8-4.7-3.1-6.4-5.4c-5.4-7.2-6.4-15-2.6-23c3.8-7.9,10.5-11.7,19.3-11.7c7.8,0,13.7,3.2,17.8,9.9
			C68.6,40.5,68.9,41.6,69.9,42.1z"/>
		<path class="st2" d="M40,70c0.6,0.1,1.1,0.3,1.1,1C40.5,70.9,39.4,71.4,40,70z"/>
		<path class="st4" d="M59,50.8c0.1,4.4-3.9,8.7-8.5,8.9c-4.5,0.2-8.7-3.6-8.9-8.3c-0.3-4.8,3.7-9.1,8.6-9.2
			C54.4,42.2,58.9,46.5,59,50.8z"/>
		<path class="st5" d="M56.7,51.2c-0.1,3.5-3.5,6.8-6.9,6.3c-3.8-0.5-6.1-2.9-5.9-6.7c0.1-3.6,2.8-6.3,6.3-6.4
			C53.6,44.4,56.8,47.6,56.7,51.2z"/>
		<path class="st6" d="M50.4,48.1c1.3,0.1,2.9,2,2.5,3.2c-0.5,1.5-1.5,2.7-3.2,2.4c-1.3-0.3-2.4-1.3-2.2-2.8
			C47.6,49.2,48.8,48.3,50.4,48.1z"/>
	</g>
</g>
</svg>
