<?xml version="1.0" encoding="utf-8"?>
<!-- Generator: Adobe Illustrator 19.0.0, SVG Export Plug-In . SVG Version: 6.00 Build 0)  -->
<svg version="1.1" id="Layer_1" xmlns="http://www.w3.org/2000/svg" xmlns:xlink="http://www.w3.org/1999/xlink" x="0px" y="0px"
	 viewBox="0 0 455.6 455.6" style="enable-background:new 0 0 455.6 455.6;" xml:space="preserve">
<style type="text/css">
	.st0{fill-rule:evenodd;clip-rule:evenodd;fill:#33363F;}
	.st1{fill-rule:evenodd;clip-rule:evenodd;fill:#B1B6BC;}
	.st2{fill-rule:evenodd;clip-rule:evenodd;fill:#727579;}
	.st3{fill-rule:evenodd;clip-rule:evenodd;fill:#F7F2DC;}
	.st4{fill-rule:evenodd;clip-rule:evenodd;fill:#EDEAD6;}
	.st5{fill-rule:evenodd;clip-rule:evenodd;fill:#F7F4E1;}
	.st6{fill-rule:evenodd;clip-rule:evenodd;fill:#878A86;}
	.st7{fill-rule:evenodd;clip-rule:evenodd;fill:#747468;}
</style>
<g>
	<g>
		<path class="st0" d="M455.6,455.6c-150.3,0-300.7,0-451,0c0-150.3,0-300.7,0-451c150.3,0,300.7,0,451,0
			C455.6,154.9,455.6,305.2,455.6,455.6z"/>
		<path class="st1" d="M249.7,431.9c-66.7,4.2-124.1-15.9-169.5-66c-54.1-59.8-66.4-145.4-31.8-218.3C82.6,75.6,156,32.4,236,34.6
			c101.7,2.7,194.1,89.3,191.4,205.2c-0.2,8.4-0.8,16.7-3.6,24.6c-11.5,9.3-18.3-0.4-24.8-7c-50.4-50.2-101.6-99.7-150.5-151.5
			c-2.6-2.7-4.2-6.5-8.6-5.3c-1.6,3.9,2.9,6.1,2.5,9.5c0.1,8.6-8.1,10.8-12.3,16.1c-3.9,25.1-3.5,50.2,0.5,75.2
			c1.7,4.6,3.9,9.1,2.9,14.2c-27.3,15.7-41.6,37.4-33.2,70.2c0.9,3.3-1.9,7.1-3.3,10.6c-15.8,40.7-15.5,41.6,16.1,69.7
			c1.7,19.9,22,24.3,31.5,37.8C250.7,412.8,262.1,419.9,249.7,431.9z"/>
		<path class="st2" d="M227.7,213.5c-1.5-2.7-2.9-5.3-4.4-8c7.5-29.2,7.2-58.3,0-87.5c2.8-5.7,11.6-1.8,13.6-8.7
			c-10.9-9.6-10.8-18.7,1.1-27.3c55.7,55.5,111.3,111,167.1,166.3c5.8,5.8,10.7,12.9,18.8,16c-2.7,38.7-21.9,69.9-45.7,98.8
			c-33.3,40.5-77.6,60.9-128.4,68.7c-0.4-8.5-6.9-12.9-12-18.2c-9.9-10.2-20.1-20.1-30-30.2c-3-3.1-7.2-6.3-2.1-11
			c4.6-10.6,14.4-9.3,23.3-10.3c37.3-4.1,49.5-24.4,33.7-57.7c-5.3-11-7.9-21.5-5.8-33.7c3.3-19.4-2.1-35.5-20.7-45.1
			C230.8,223,227.2,219.8,227.7,213.5z"/>
		<path class="st3" d="M227.7,213.5c6,0.8,12.2,0.9,17.8,2.6c19.2,5.9,26.3,16.7,21.3,35.8c-4.8,18.2-2.7,34.1,8,49.5
			c3.4,4.8,5.7,10.8,7.1,16.5c7,27.8-7.4,50.1-35.6,55c-13.5,2.3-27.1,1.7-40.6-0.5c-37.1-21-42.2-37.6-21.3-75.4
			c7.1-12.9,8.4-25.7,6.4-39.4c-4.4-30.9,1.6-39.1,32.5-43.5C224.7,213.9,226.2,213.7,227.7,213.5z"/>
		<path class="st4" d="M223.2,118.1c7.8-0.2,12.9,2.3,12.9,11.4c0,21.8,0.2,43.7,0.8,65.5c0.3,10.4-7.1,9.6-13.6,10.5
			c-1.1-1.9-3.2-3.8-3.3-5.7C219.5,172.5,215,145,223.2,118.1z"/>
		<path class="st5" d="M237.9,82.1c-0.4,9.1-0.7,18.2-1.1,27.3c-10,1.1-18.3,0.2-18.1-13.1C218.9,84.7,220.7,83.2,237.9,82.1z"/>
		<path class="st6" d="M250.2,264.8c0.3,11-9.9,21.6-21.3,22.2c-11.1,0.6-22.3-9.4-23.1-20.5c-0.8-11.1,11.4-24,22.5-23.8
			C239.2,242.9,249.9,253.8,250.2,264.8z"/>
		<path class="st7" d="M202.2,333.5c16-6.7,32.1-4.8,48.2-4c2,0.1,4.1,2,3.4,4.7c-0.3,1.2-1.5,3-2.4,3.1
			C234.8,338.9,218.2,340.8,202.2,333.5z"/>
	</g>
</g>
</svg>
