<?xml version="1.0" encoding="utf-8"?>
<!-- Generator: Adobe Illustrator 19.0.0, SVG Export Plug-In . SVG Version: 6.00 Build 0)  -->
<svg version="1.1" id="Layer_1" xmlns="http://www.w3.org/2000/svg" xmlns:xlink="http://www.w3.org/1999/xlink" x="0px" y="0px"
	 viewBox="0 0 99 99" style="enable-background:new 0 0 99 99;" xml:space="preserve">
<style type="text/css">
	.st0{fill-rule:evenodd;clip-rule:evenodd;fill:#33363F;}
	.st1{fill-rule:evenodd;clip-rule:evenodd;fill:#D83A37;}
	.st2{fill-rule:evenodd;clip-rule:evenodd;fill:#942827;}
	.st3{fill-rule:evenodd;clip-rule:evenodd;fill:#753634;}
	.st4{fill-rule:evenodd;clip-rule:evenodd;fill:#F7EED8;}
</style>
<g>
	<g>
		<path class="st0" d="M50.4,100c-15.7,0-31.3,0-47,0c-1.5,0-2.5,0.2-2.5-2.1C1,66.2,1,34.6,0.9,2.9c0-2,0.7-1.9,2.2-1.9
			c31.7,0,63.3,0.1,95,0c2,0,1.9,0.7,1.9,2.2c0,31.7-0.1,63.3,0,95c0,2-0.7,1.9-2.2,1.9C82.1,100,66.2,100,50.4,100z"/>
		<path class="st1" d="M39.9,92.2C39,92.1,38,92.1,37,92c-1.6-0.9-3.6-0.7-5-2c-6.5-3.7-12.4-8-17-14.1C7.5,65.7,5.3,54.5,7.4,42.4
			C10.2,25.9,20,14.7,35.4,9c7.5-2.8,15.5-3.9,23.9-1.7c9.3,2.5,17.4,6.7,23.5,13.9C93,33.2,96.6,46.8,92,62.1
			c-2.2,3.3-3.7,3.6-6.9,0.6c-4.9-4.5-9.5-9.2-13.9-14.2c-1.4-1.6-2.9-2.6-4.8-3.2c-1.1-0.8-1.7-2-2.4-3.1c-4.6-7-11.5-9.7-18.3-7.3
			C37.6,37.7,32.7,44.9,33.3,53c0.5,5.5,0.8,11.1,6.5,14.2c2.1,4.9,6.4,7.9,9.9,11.6c2.9,3,6,5.7,8.6,8.9c2.2,2.8,1.1,5.9-2.2,5.5
			C50.8,92.6,45.2,94,39.9,92.2z"/>
		<path class="st2" d="M67.9,43.9c1-0.9,1.5,0,2,0.6c4.7,4.6,9.8,8.8,14,13.9c1.5,1.8,3.4,3.2,5.3,4.5c1.6,1.2,1.9-0.5,2.8-0.8
			c-1.8,8-6.3,14.3-12.1,19.9c-4.2,4-8.9,7.3-14.3,9.3C58,94.1,50,94.9,41.8,93.7c-0.9-0.1-1.4-0.8-1.9-1.5c5-0.2,9.9-0.5,14.9,0.2
			c0.5,0.1,1,0.3,1.5,0.2c0.8-0.1,1.8-0.4,2-1.2c0.1-0.4-0.5-1.2-1-1.6c-5.5-5.5-11-11-16.5-16.5c-0.9-0.9-1.9-1.9-2.8-2.9
			c-1.2-1.4,0.7-1.4,1-2.2c-0.6-2,0.7-3.5,1.4-5.1c2.3-5.5,1.4-8-3.9-10.5c-2.2-1-2.8-2.6-2.5-4.9c1-7.3,8.5-13.6,16.3-13.7
			c7.1-0.1,14.5,5.9,15.9,12.8c0.6,2.9-0.2,4.8-3,6c-4.4,1.9-5.6,4.9-3.7,9c0.7,1.4,1.4,2.7,3.3,2.6c1.6-0.2,2.2-1.4,2.6-2.7
			c1.2-4.4,2.2-8.8,1.4-13.3C66.5,46.6,66.3,45,67.9,43.9z"/>
		<path class="st3" d="M32,90c2-0.2,3.7,0.5,5,2C35.1,92,33,92.3,32,90z"/>
		<path class="st4" d="M67.9,43.9c2.5,6.5,1.5,13-0.2,19.5c-0.6,2.2-1.6,4.5-4.4,4.8c-2.7,0.3-4.2-1.4-5.4-3.6
			c-1.9-3.7-2.6-7.5-0.7-11.4c1.3-2.6,2.5-3.2,5.6-2.6c1.2,0.2,2.2,0.5,1.9-1c-1.4-6.7-6-12.7-14.1-13.3c-6.8-0.5-13.8,5.8-14.8,13
			c-0.1,1-0.5,1.9,1.3,1.5c4.1-0.8,6.2,0.7,6.7,4.9c0.7,5.1-0.3,9.6-4.9,12.7c-4.6-0.6-5.3-1.1-6.3-5.4C31.2,57.1,30,51.5,32,45.7
			c2.6-7.6,10-14.9,20-13.8c5.2,0.6,9.3,3,12.6,7C65.8,40.5,66.8,42.2,67.9,43.9z"/>
	</g>
</g>
</svg>
