<?xml version="1.0" encoding="utf-8"?>
<!-- Generator: Adobe Illustrator 19.0.0, SVG Export Plug-In . SVG Version: 6.00 Build 0)  -->
<svg version="1.1" id="Layer_1" xmlns="http://www.w3.org/2000/svg" xmlns:xlink="http://www.w3.org/1999/xlink" x="0px" y="0px"
	 viewBox="0 0 99 99" style="enable-background:new 0 0 99 99;" xml:space="preserve">
<style type="text/css">
	.st0{fill-rule:evenodd;clip-rule:evenodd;fill:#33363F;}
	.st1{fill-rule:evenodd;clip-rule:evenodd;fill:#F3888C;}
	.st2{fill-rule:evenodd;clip-rule:evenodd;fill:#A05257;}
	.st3{fill-rule:evenodd;clip-rule:evenodd;fill:#F9EFDB;}
	.st4{fill-rule:evenodd;clip-rule:evenodd;fill:#955F5C;}
</style>
<g>
	<g>
		<path class="st0" d="M50.8,1c15.6,0,31.3,0,46.9,0c1.8,0,2.3,0.3,2.3,2.3c-0.1,31.6-0.1,63.3,0,94.9c0,2-0.7,1.9-2.2,1.9
			c-31.6,0-63.3,0-94.9,0c-1.6,0-2.1-0.1-2.1-2C1,66.4,1,34.8,0.9,3.2C0.9,1.1,1.7,1,3.3,1C19.1,1,35,1,50.8,1z"/>
		<path class="st1" d="M60,92.8C45.7,95.6,33,92.3,22,82.7C-0.4,63.2,3.2,27,29.1,12.2c25.4-14.5,57.4-0.8,64.3,27.7
			c1.7,7,1.8,14.1-0.4,21.2c-2.1,2.4-3.8,0.9-5.4-0.7c-6.4-6.2-12.9-12.3-18.8-19c-1.4-1.6-2.7-2.5-4.6-3.1
			c-4.7-3.9-10.4-5.1-16.1-6.1c-3.3-0.6-5.5,1.4-5,4.7c0.7,4.7-0.5,9.3,0,14c0.3,3.4-0.3,5.9-4.5,7c-3.8,0.9-3.7,2.8-0.2,7.6
			c0.6,1.6,1.5,2.9,2.9,4.1c6.3,5.5,12.1,11.6,18,17.6C60.7,88.8,61.9,90.6,60,92.8z"/>
		<path class="st2" d="M60,92.8c-0.5-1.9-2-3-3.2-4.3c-6.2-6.2-12.4-12.4-18.5-18.7c-0.8-0.8-2.5-1.4-1.3-3.1
			c0.4-0.6,0.8-1.2,1.1-1.9c0.6-0.8,1.4-1.4,2.1-2.2c3.5-4.3,2.8-9.4,2.9-14.4c0.1-6.1,0.9-6.8,6.5-5.2c3.7,1.1,7.3,2.2,11,3.3
			c2.5,0.8,3.7,2.3,3.4,5c-0.2,2.3-0.2,4.6-0.1,6.9c0.1,2.8-0.5,4.5-3.3,5.1c-1.5,0.3-3,1-3,2.8c0,0.9,0.6,1.5,1.6,1.7
			c2,0.2,3.1-1,3.7-2.7c1.9-5.4,1.2-11.1,0.9-16.6c-0.2-3.2,0.5-6.3,0.2-9.5c-0.2-1.6,0.7-2.7,2.4-3c7.4,7.3,14.9,14.7,22.3,22
			c1.3,1.3,2.3,2.9,4.3,3.1c-2.5,12.1-9.9,20.6-20.2,26.8C68.9,90.2,64.7,92.1,60,92.8z"/>
		<path class="st3" d="M66.3,36c-0.1,8.8-0.1,17.6-0.2,26.5c0,1.2,0,2.3,0,3.5c0,2.8-1.4,4.9-4,5.7c-2.6,0.8-5.3,0.8-7.5-1.2
			c-3.1-2.7-2.6-7.3,1.1-9.1c0.7-0.4,1.6-0.5,2.3-0.9c1.2-0.6,2.8,0.8,3.7-0.5c0.9-1.3,0.3-2.9,0.4-4.4c0-0.7,0-1.3,0-2
			c-0.1-3.9-0.1-3.9-3.7-5.1c-3.1-1-6.3-2.1-9.5-3c-3.9-1.2-3.9-1.1-3.9,2.7c0,3.8,0,7.7,0,11.5c0,3.2-1.1,5.5-4.2,6.6
			c-0.6,0.3-1.2,0.3-1.8,0.6c-0.7,0-1.3-0.1-2-0.1c-0.6-0.3-1.2-0.6-1.8-0.9c-2.9-1.5-4.3-3.6-4-5.7c0.4-2.4,2.7-4.5,5.5-5.1
			c4.1-0.9,4.2-0.9,4.2-4.9c0-5.7-0.1-11.3,0.1-17c0.1-4.6,1.5-5.7,5.9-4.4c5.4,1.6,10.8,3.4,16.2,5C64.4,34.2,65.5,34.9,66.3,36z"
			/>
		<path class="st1" d="M39,66.8c0.5-0.4,1.1-0.8,1.8-0.6C40.3,66.8,39.7,67,39,66.8z"/>
		<path class="st4" d="M60.2,42.8c-4.3-1.4-9.2-3-14-4.6c-1.2-0.4-1.3-1.4-1-2.4c0.3-1,1.3-0.9,2.1-0.7c4.4,1.3,8.8,2.7,13.2,4.1
			c0.8,0.3,1.5,0.7,1.7,1.6C62.3,41.8,62.3,42.9,60.2,42.8z"/>
	</g>
</g>
</svg>
