<?xml version="1.0" encoding="utf-8"?>
<!-- Generator: Adobe Illustrator 19.0.0, SVG Export Plug-In . SVG Version: 6.00 Build 0)  -->
<svg version="1.1" id="Layer_1" xmlns="http://www.w3.org/2000/svg" xmlns:xlink="http://www.w3.org/1999/xlink" x="0px" y="0px"
	 viewBox="0 0 101 101.1" style="enable-background:new 0 0 101 101.1;" xml:space="preserve">
<style type="text/css">
	.st0{fill-rule:evenodd;clip-rule:evenodd;fill:#33363F;}
	.st1{fill-rule:evenodd;clip-rule:evenodd;fill:#FEFEFE;}
	.st2{fill-rule:evenodd;clip-rule:evenodd;fill:#5A8670;}
	.st3{fill-rule:evenodd;clip-rule:evenodd;fill:#3D5C4C;}
	.st4{fill-rule:evenodd;clip-rule:evenodd;fill:#F0F2DC;}
	.st5{fill-rule:evenodd;clip-rule:evenodd;fill:#EFF3DA;}
	.st6{fill-rule:evenodd;clip-rule:evenodd;fill:#F1F2DC;}
	.st7{fill-rule:evenodd;clip-rule:evenodd;fill:#F4F3DE;}
	.st8{fill-rule:evenodd;clip-rule:evenodd;fill:#F4F6DC;}
	.st9{fill-rule:evenodd;clip-rule:evenodd;fill:#F1F3DD;}
	.st10{fill-rule:evenodd;clip-rule:evenodd;fill:#F4F2DB;}
	.st11{fill-rule:evenodd;clip-rule:evenodd;fill:#4A5D4D;}
	.st12{fill-rule:evenodd;clip-rule:evenodd;fill:#4C695A;}
	.st13{fill-rule:evenodd;clip-rule:evenodd;fill:#3F5D4A;}
	.st14{fill-rule:evenodd;clip-rule:evenodd;fill:#7E806C;}
	.st15{fill-rule:evenodd;clip-rule:evenodd;fill:#A9AC99;}
	.st16{fill-rule:evenodd;clip-rule:evenodd;fill:#A8AA97;}
	.st17{fill-rule:evenodd;clip-rule:evenodd;fill:#8B8E7D;}
</style>
<g>
	<g>
		<path class="st0" d="M1,100C1,67,1,34,1,1c33,0,66,0,99,0c0.9,1.4,0.5,2.9,0.5,4.4c0,30-0.1,60,0.1,89.9c0,4.1-1.1,5.3-5.2,5.2
			c-30-0.2-60-0.1-89.9-0.1C3.9,100.5,2.4,100.8,1,100z"/>
		<path class="st1" d="M1,100c32.9,0,65.8,0,99,0c0-33.2,0-66.1,0-99c0.3,0,1,0,1,0c0,1.5,0,3,0,4.5c0,31.8,0,63.7,0,95.5
			c-32.8,0-65.7,0-98.5,0C1.9,101,0.7,101.6,1,100z"/>
		<path class="st2" d="M55,95c-1.3,0-2.7,0-4,0c-8.6,0-16.4-2.5-23.5-7.1c-5.8-3.7-10.1-9.1-14.4-14.4c-0.6-4.2-3.4-7.5-4.2-11.8
			C7.6,56,8.2,50.3,8.1,44.6c-0.1-3.3,1.1-6.5,2.4-9.5c2.7-6.5,6.5-12.4,11.9-17c4.9-4.2,10.6-7.2,16.7-9C40.2,8.8,41,8,42.1,8
			c1.3,0,2.7,0,4,0c3,0,6,0,9,0c1.5,0,3.1-0.3,4.4,0.2c3.2,1.2,6.5,1.9,9.6,3.3c6.4,2.6,10.9,7.2,15.6,11.8c1.5,1.5,2,3.7,3.9,4.9
			c0.2,0.1,0.3,0.5,0.4,0.8c1,4.1,4,7.4,4.8,11.5c1,4.7,1.6,9.6,1.2,14.5c-1.9,1.4-3.6,0.5-4.9-0.7c-3.4-3-6.9-6-9.2-9.5
			c0.5,4.4,0.3,9.2,0.1,14.1c-0.1,1.9-0.3,4.1-3,4.3c-2-1.5-1.9-3.7-2-5.8c-0.1-4.1,0.2-8.3,0-11.9c-0.3,2.2,0.8,5.3-2.6,6.8
			c-2.7-1.2-2.2-3.7-2.3-5.9c-0.1-1.8,0.1-3.7-2.2-4.4c-1.4-0.6-2.5,0.3-3.7,0.7c-1.7,0.6-3.1-0.3-4.6-0.9c-1.4-0.4-2.4,0.6-3.6,1.1
			c-1.8,0.5-2,1.9-2,3.5c0,1.8-0.1,3.7-2,4.8c-3.1-0.6-2.6-3.2-3-5.4c-0.3-1.8,1-4.1-1.8-5c-0.7-0.1-1.3-0.1-2,0
			c-1.8,0.3-2.8,2.1-4.5,2.6c-1.4,0-1.9,0.7-1.8,2.1c0.1,1.9,0,3.9-1.5,5.4c-3.8,0.2-2.9-2.8-3.5-4.9c-0.3-1.3,0.9-3.6-2.1-3.2
			c-1.7,0.2-3.1-0.7-4.6-1c-2.2,0-2.2,1.7-2.2,3.1c-0.1,4.1,0,8.3-0.1,12.4C26,60,28,60.9,29.7,62.1c0.5,4.2,3.5,6.9,6.3,9.7
			c5.7,5.7,11.7,11.3,17,17.3C54.4,90.7,56.8,92.2,55,95z"/>
		<path class="st3" d="M55,95c-0.1-0.6,0.3-1.4-0.3-1.8c-3.2-2.1-5.1-5.5-8-8c-3.1-2.8-5.9-5.8-8.8-8.7c-2.8-2.8-5.6-5.6-8.4-8.4
			c-0.8-0.8-1.7-1.6-2.4-2.5c-0.3-0.5-0.2-1.3,0.7-1.5c0.8-0.2,2.1,0.7,2.3-1c-1.1-5.7-3-11.4-3.1-17.3c0-2.1-0.1-4.3,2.1-5.7
			c1.3,0.7,2.7,1.3,4,2c3.3,2.8,1.9,6.4,1.6,9.8c-0.2,2.3-0.7,4.6-0.4,6.9c0.1,0.7,0.3,1.4,1,1.5c1.1,0.2,1.3-0.7,1.5-1.5
			c0.6-2.5-0.6-5.4,1.3-7.7c0-3.6,0-7.2,0-10.9c1.9,0.6,2.3,2.6,4,2.9c3.1,2.7,2,6,1.2,9.1c-0.6,2.1-1.2,4.1-1,6.3
			c0.1,2.3,1.3,3.2,3.5,3c0.7,0.1,1.4,0.2,2.1,0.2c2.1,0.2,4.2-0.3,6.4-0.1c0.7,0.1,1.5,0,2.2,0c1.7-0.4,3.5-0.5,5.2,0
			c0.7,0.1,1.4,0.1,2.2,0.1c2.1-0.3,4.2,0,6.3,0c0.7,0,1.4,0,2.1,0c2.1-0.2,4.2,0.2,6,1.5c1.4,0,1-1.1,1-1.8c0-6.6,0-13.2,0-19.9
			c1.1-0.4,1.3,0.7,1.8,1.1c0.7,0.5,1.2,1.1,1.8,1.7c3.3,3.3,6.6,6.5,9.8,9.9c0.8,0.8,1.5,1.2,2.6,1c-1.2,3.5-1.5,7.2-2.9,10.7
			C88.6,75,86.3,78.6,79,84.6c-2.9,2.4-6,4.7-9.4,6.1c-3.5,1.5-7,3.4-11.1,3.2C57.2,93.9,56.4,95.5,55,95z"/>
		<path class="st4" d="M46,63c-3.7,2.2-5.9,1.2-6-2.6c0-2.3,0-4.6,0-6.9c0-1,0.2-1.5,1.3-1.5c0.9,0,0.7-0.9,0.7-1.5c0-2.5,0-5,0-7.4
			c0-0.6,0.1-1.3,0-1.9c-0.3-1.7,0.4-2.4,2.1-2.1c0.6,0.1,1.3,0,1.9,0C49.6,42.8,49.6,59.2,46,63z"/>
		<path class="st5" d="M29,40c0,3.1-0.1,6.2,0,9.4c0,1.1-0.8,2.8,1.5,2.7c0.1,0,0.4,0.5,0.4,0.8c0,3.3-0.1,6.5-0.2,9.8
			c0,0.1-0.5,0.2-0.8,0.3c-1.9,0-3.9,0-5.9,0c0-8,0-15.8,0-23.8C25.7,39.3,27.5,38,29,40z"/>
		<path class="st6" d="M38,51c0.2,1.1,1.2,1.7,1.1,3.1c-0.2,1.8,0,3.6-0.1,5.4c0,1.1,0.6,2.9-0.4,3.2c-1.3,0.4-2.6,1-3.9,1.3
			c-1.3,0.2-2.8-0.8-2.6-2.1c0.4-3.5-0.6-6.9,0.7-10.6c1-2.8,0.2-6.2,0.2-9.3c0.1-2.9,0.1-2.9,4-2.9c0,3.4,0,6.7,0,10.1
			C37,50,36.7,51,38,51z"/>
		<path class="st7" d="M54,63c-0.5,0-1.2-0.2-1.4,0c-1.6,1.8-3.1,0.9-4.6,0c-0.8-8-0.8-16,0-24c1.2,0,2.3,0,3.9,0
			c0,1.7,0.1,3.5,0.1,5.2c0,1.7,0,3.3,0,5c0,0.7-0.4,1.8,1,1.8c1.3-0.2,2.3,0.3,3,1.5C56.3,56.1,58.2,60.1,54,63z"/>
		<path class="st8" d="M78,63c-1.5,1-3,1.8-4.6,0c-0.2-0.2-0.9,0-1.4,0c-2.4-3.4-1.8-7-0.6-10.6c0.5-0.5,1-0.7,1.6-0.3
			c1,0.1,1-0.6,1-1.3c0-3.8,0-7.6,0-11.4c1.3-0.4,2.6-0.4,4-0.1C78,47.2,78,55.1,78,63z"/>
		<path class="st9" d="M70,63c-1.2,0.5-2.3,1.9-3.6,0.1C66.1,62.7,64.8,63,64,63c-2.6-3.3-1.1-7.1-1.4-10.7
			c1.1-3.4-0.9-7.5,2.4-10.3c0.2-0.9-0.5-2.5,0.4-2.7c1.1-0.3,2.8-1.4,3.6,0.7c3.1,3.7,1.7,8.1,2,12.2C70.6,55.8,71.9,59.6,70,63z"
			/>
		<path class="st10" d="M62,63c-2,0-4,0-6,0c-1.1-3.5-0.2-7.1-0.5-10.7C55.2,48.8,53.8,45,57,42c0.2-0.9-0.5-2.5,0.4-2.7
			c1.1-0.3,2.8-1.4,3.6,0.7c2.8,3.7,1.9,8.1,2,12.3C62.6,55.8,63.9,59.6,62,63z"/>
		<path class="st11" d="M70,52c-0.9,0.1-1-0.6-1-1.2c0-3.6,0-7.2,0-10.8c1-0.1,1.4,1,2.5,1.1c0.8,0.1,1.6,1.2,1.6,2.6
			c-0.2,2.7,0,5.5,0,8.2c-0.3,0-0.7,0-1,0C71.3,52.6,70.7,52.6,70,52z"/>
		<path class="st12" d="M57,42c0,2.9,0,5.8,0,8.8c0,0.7-0.1,1.3-1,1.2c-0.3,0.7-0.7,0.7-1,0c-0.8-0.2-1.9,0.5-2-1
			c0-3.5,0-7.1,0-11.1C54.6,40.6,55.2,42.6,57,42z"/>
		<path class="st13" d="M62,52c-0.9,0.1-1-0.6-1-1.2c0-3.6,0-7.2,0-10.8c1,0,1.3,0.8,1.8,1.4c0.7,0.7,1.4,0.6,2.2,0.6
			c0,2.9,0,5.8,0,8.8c0,0.7-0.1,1.3-1,1.2C63.3,52.6,62.7,52.6,62,52z"/>
		<path class="st14" d="M48,39c0,8,0,16,0,24c-0.7,0-1.3,0-2,0c0.2-1.1,1.1-1.8,1.1-3.1c-0.1-6-0.1-11.9,0-17.9c0-1.3-0.9-2-1.1-3.1
			C46.7,39,47.3,39,48,39z"/>
		<path class="st15" d="M62,52c0.7,0,1.3,0,2,0c0,3.7,0,7.3,0,11c-0.7,0-1.3,0-2,0C62,59.3,62,55.7,62,52z"/>
		<path class="st16" d="M70,52c0.7,0,1.3,0,2,0c0,3.7,0,7.3,0,11c-0.7,0-1.3,0-2,0C70,59.3,70,55.7,70,52z"/>
		<path class="st17" d="M55,52c0.3,0,0.7,0,1,0c0,3.7,0,7.3,0,11c-0.7,0-1.3,0-2,0c0.2-1.1,1.2-1.8,1.1-3.1C54.8,57.3,55,54.6,55,52
			z"/>
	</g>
</g>
</svg>
