<?xml version="1.0" encoding="utf-8"?>
<!-- Generator: Adobe Illustrator 19.0.0, SVG Export Plug-In . SVG Version: 6.00 Build 0)  -->
<svg version="1.1" id="Layer_1" xmlns="http://www.w3.org/2000/svg" xmlns:xlink="http://www.w3.org/1999/xlink" x="0px" y="0px"
	 viewBox="0 0 99 99" style="enable-background:new 0 0 99 99;" xml:space="preserve">
<style type="text/css">
	.st0{fill-rule:evenodd;clip-rule:evenodd;fill:#33363F;}
	.st1{fill-rule:evenodd;clip-rule:evenodd;fill:#5C9ABB;}
	.st2{fill-rule:evenodd;clip-rule:evenodd;fill:#345970;}
	.st3{fill-rule:evenodd;clip-rule:evenodd;fill:#EAF2E3;}
	.st4{fill-rule:evenodd;clip-rule:evenodd;fill:#516666;}
	.st5{fill-rule:evenodd;clip-rule:evenodd;fill:#EBF1E9;}
	.st6{fill-rule:evenodd;clip-rule:evenodd;fill:#F4F3DE;}
	.st7{fill-rule:evenodd;clip-rule:evenodd;fill:#F0EFDF;}
	.st8{fill-rule:evenodd;clip-rule:evenodd;fill:#525F59;}
	.st9{fill-rule:evenodd;clip-rule:evenodd;fill:#59676C;}
	.st10{fill-rule:evenodd;clip-rule:evenodd;fill:#506464;}
</style>
<g>
	<g>
		<path class="st0" d="M100,51c0,15.7,0,31.3,0.1,47c0,1.7-0.3,2.1-2.1,2.1c-31.7-0.1-63.3-0.1-95,0c-1.7,0-2.1-0.3-2.1-2.1
			C1,66.3,1,34.7,0.9,3c0-1.7,0.3-2.1,2.1-2.1C34.7,1,66.3,1,98,0.9c1.7,0,2.1,0.3,2.1,2.1C100,19,100,35,100,51z"/>
		<path class="st1" d="M50.7,93.8c-1.5,0-3.1,0-4.6,0.1c-1.3-0.8-2.9,0.1-4.2-0.8C23.8,88.9,11.9,77.9,7.4,59.7
			c-5-20.2,5.8-40.1,22.7-48.5c16.4-8.1,32.1-6.3,46.5,4.3c11.5,8.5,16.9,20.7,17.1,35c0,2.1-0.5,4.3-0.8,6.4
			c-2.3,1.5-3.8,0-5.1-1.4c-9-9.2-18.7-17.7-26.9-27.6c-1.1-1.3-2.6-1.3-3.7-2.2c-3.3-4.1-9.4-4.4-13.1-0.7
			c-0.1,0.6-0.2,1.2-0.3,1.9c0,0.6,0.1,1.2,0.2,1.8c0.2,0.8,0.5,1.6,0.4,2.5c-0.2,0.8-0.5,1.6-0.7,2.5c-0.1,0.7-0.2,1.3-0.4,2
			c-0.4,0.8-0.8,1.7-1.4,2.4c-0.7,0.6-1.4,1.2-2.4,1.5c-1,0.3-2.1,0.5-2,1.8c0.1,3.2-0.1,6.5,0.2,9.7c0.2,2.7,2.9,3.4,4.8,4.7
			c1,2.6,3.5,3.3,5.6,4.4c0.5,0.9,1.1,1.8,1.1,2.8c-0.3,4.1,2.4,6.2,5.3,8.2c0,1-0.5,1.7-1.4,1.5c-0.5-0.1-0.7,0-0.1,0
			c1,0.1,1.8-0.7,2.7-1c2.7-0.9,5.3-1.3,5.9,2.7c-1,2.3-3.2,2.1-5.1,2.2c-3.8,0.2-7.6,0-11.4,0.1c-1.8,0-3.8-0.2-4.3,2.3
			c1.1,4.4,5.8,5.7,8,9.1C49.9,89.7,52.6,91,50.7,93.8z"/>
		<path class="st2" d="M50.7,93.8c-2.6-3.6-6.1-6.4-9.2-9.7c-1.2-1.3-2.4-2.7-3.6-4c0.7-2.6,2.9-2.3,4.8-2.4
			c4.3-0.2,8.6,0.1,12.8-0.2c2.4-0.1,5.2-0.2,5.3-3.8c-2.5-1.4-5.2-0.4-7.8-0.6c-1.5-0.1-3-0.1-4.5-0.1c-0.3,0-0.5-0.3-0.8-0.4
			c0.3-0.2,0.5-0.4,0.8-0.4c1.7-0.5,3.7,0.6,5.2-0.9c-1.9-1.9-3.3-4-3.7-6.7c-0.3-1.8-1.8-3.1-3.2-4.3c-0.9,0.2-1.3,2.3-2.6,0.7
			c-1.2-1.4-3.2-2.3-3.5-4.4c1.2-1.3,2.6-0.9,4.1-0.7c1.8,0.3,3.5,0.8,5.3,0.7c11-0.8,13.8-4,11.3-15.6c-1-0.1-1.9,0.3-2.9,0.2
			c-0.7-0.1-1.2-0.4-1.7-0.9c-0.5-0.7-0.9-1.5-1.6-2.2c-1.2-1.6-4.9-1.2-4.5-3.2c0.7-3.3-0.9-6.7,0.6-9.6c1.7-3.4,4.2-2.3,6.5-0.3
			c2.1-1,3,0.7,4.1,1.8c7.7,7.7,15.5,15.5,23.2,23.2c2.5,2.4,4.7,5.1,7.6,7.1c0.2,4.2-1.4,7.9-3.2,11.4C85.5,76.5,80,83.5,71.4,88
			C64.8,91.4,58.3,94.3,50.7,93.8z"/>
		<path class="st2" d="M42,93.1c1.5-0.1,2.9-0.3,4.2,0.8C44.7,94,43.2,94.3,42,93.1z"/>
		<path class="st3" d="M58,24.9c-1.7,0.1-3.3,0.1-5,0.3c-0.5,0-0.9,0.3-1,0.8c-0.1,0.7,0.5,0.9,0.9,0.9c1.5,0.1,3,0.1,4.5,0.3
			c0.5,0,0.9,0.3,0.9,0.9c0,0.6-0.5,0.8-1,0.9c-1.5,0.1-3,0.1-4.5,0.3c-0.4,0-1,0.2-0.9,0.9c0.1,0.6,0.6,0.8,1,0.9
			c1.5,0.1,3,0.1,4.5,0.2c0.5,0,1,0.3,0.9,0.9c0,0.6-0.5,0.9-0.9,0.9c-1.6,0.1-3.3,0.2-4.9,0.3c-0.2,0-0.5,0.4-0.6,0.7
			c-0.3,0.7,0.3,0.9,0.7,1c1.3,0.1,2.6,0.2,4,0.2c1.1,0,1.9,0.5,2.3,1.5c-0.2,0.9-1.9,1.1-1,2.5c0.3,0.3,0.6,0.6,0.9,0.9
			c1.1,1.1-1.4,1.5-0.1,3.6c3,4.7-0.5,9.4-6.2,9.8c-1.1,0.1-2.3,0-3.4,0c-7.2,0-8.1-0.8-8.3-7.7c-0.1-2.9-0.3-5.9,0.4-8.8
			c0.1-0.8,0.3-1.5,0.9-2c0.5-0.6,0.5-1.2,0.1-1.8c-1.4-1.3-0.5-1.8,0.8-2.2c0.7-1-0.3-1.4-0.8-1.8c-0.9-0.7-0.8-1.5,0-2.2
			c0.6-0.6,0.6-1.2-0.1-1.8c-0.6-2,0.6-3.1,2.2-3.9c4.1-1.9,8.2-1.7,12.3,0.4C57.9,22.3,58.2,23.5,58,24.9z"/>
		<path class="st4" d="M41.2,37c1.8,0.1,3.7,0.1,5.5,0.2c0.7,0,1.3,0.2,1.5,1c0.2,1-0.7,0.9-1.3,1.1c-0.2,0.1-0.3,0-0.5,0
			C44.9,39.7,42,38.5,42,40c0.1,2.2,2.9,0.7,4.5,1.1c0.7,0.2,1.4,0.2,1.5,1c0.2,1.3-0.9,1.1-1.6,1.2c-1.5,0.3-4.3-0.8-4.4,0.9
			c0,2.1,2.6,0.6,4.1,1c0.5,0.1,1,0.1,1.4,0.3c0.3,0.1,0.6,0.5,0.6,0.7c-0.1,0.4-0.4,1.1-0.7,1.1c-1.3,0.1-2.6,0.1-4,0.2
			c-0.7,0-1.4,0.3-1.5,1c-0.2,0.7,0.3,1.3,0.8,1.7c2.8,2.7,11.7,2.7,14.6,0.1c0.5-0.5,0.9-1.1,0.7-1.8c-0.2-0.7-0.9-0.9-1.5-1.1
			c-0.3-0.1-0.7,0-1-0.1c-1.3-0.3-3.5,1-3.6-1.2c0-1.4,2.2-0.9,3.5-1c0.7-0.1,1.3,0,2-0.1c0.5-0.1,1-0.2,0.9-0.9
			c-0.1-0.5-0.5-0.8-1.1-0.8c-1.3-0.1-2.7,0-4-0.2c-0.6-0.1-1.5,0-1.3-1c0.1-0.8,0.8-1,1.4-1.1c1.9-0.4,4.1,0.8,5.6-1.1
			c1.6-0.9,0.5-3.2,2.2-4.1c3.4,5.3,1.6,10.8,0.4,16.2c-0.4,1.6-2.3,2.6-4.2,3.2c-4.9,1.6-9.7,1.2-14.5-0.1c-3.6-0.9-5.7-3-5.1-6.9
			c0.5-3.5-2.1-7.4,1.6-10.4C39.9,37.7,40.5,37.3,41.2,37z"/>
		<path class="st5" d="M39.2,38c0,3.5-0.1,7-0.1,10.4c0,3.5,0.4,4.1,3.5,5.1c4.7,1.5,9.4,1.8,14.2,0.3c3-0.9,3.9-2.1,4-5.4
			C60.9,44.3,61,40.1,61,36c3,0.5,4.3,2,3.6,4.9C64,43.4,64,45.8,64,48.3c0,5.3-1.4,7.2-6.4,8.6c-5.6,1.6-11.1,1.5-16.6-0.4
			c-3.6-1.5-5.4-4.1-5-8.1c0.2-2.4,0.3-5-0.6-7.4c-0.5-1.3,0-2.6,0.7-3.8C37,35.5,37.6,35.6,39.2,38z"/>
		<path class="st6" d="M60.9,73.7c2.4,0.2,3.6,1.5,3.2,4C63.8,79.8,62,80,60.3,80c-7.5,0-14.9,0.1-22.4,0.1C37.2,79.5,36.3,79,36,78
			c-0.6-2.4,0.2-3.9,2.7-4.1c2.8-0.2,5.6-0.1,8.4,0C51.7,73.9,56.3,74.2,60.9,73.7z"/>
		<path class="st7" d="M47,60.2c0.5-0.1,1-0.2,1.5-0.2c4.9,0,4.9-0.4,4.6,4.4c-0.1,2.4,1.6,4.4,0.8,6.8c-2.4-0.2-5.4,0.9-7.2-0.6
			c-2-1.7,0.6-4.2,0.3-6.5C46.7,62.8,47,61.5,47,60.2z"/>
		<path class="st8" d="M42,25.1c1.7,0,3.3,0,5,0c0.4,0,0.9,0.3,1,0.9c0.1,0.7-0.5,0.9-0.9,0.9c-1.6,0.1-3.3,0-5-0.1
			C42.1,26.3,42.1,25.7,42,25.1z"/>
		<path class="st9" d="M42.2,33.1c1.6,0,3.3,0,4.9,0.1c0.4,0,0.9,0.4,0.8,1c-0.1,0.6-0.5,0.8-1,0.9c-1.6,0.2-3.3,0.2-4.9-0.2
			C42.2,34.3,42.2,33.7,42.2,33.1z"/>
		<path class="st10" d="M42.2,29.1c0.3,0,0.7-0.1,1-0.1c1.6,0.3,4.7-0.7,4.6,0.9c-0.2,2.3-3,0.9-4.7,1.1
			C42.7,30.3,42.4,29.7,42.2,29.1z"/>
		<path class="st4" d="M57.9,39.2c-1.8,0-3.5,0-5.3,0c-0.4,0-0.9-0.3-0.9-0.9c0-0.5,0.4-0.9,0.9-1c2.1-0.2,4.2-0.4,6.2-0.6
			C58.5,37.5,58.2,38.3,57.9,39.2z"/>
	</g>
</g>
</svg>
