<?xml version="1.0" encoding="utf-8"?>
<!-- Generator: Adobe Illustrator 19.0.0, SVG Export Plug-In . SVG Version: 6.00 Build 0)  -->
<svg version="1.1" id="Layer_1" xmlns="http://www.w3.org/2000/svg" xmlns:xlink="http://www.w3.org/1999/xlink" x="0px" y="0px"
	 viewBox="0 0 99 99" style="enable-background:new 0 0 99 99;" xml:space="preserve">
<style type="text/css">
	.st0{fill-rule:evenodd;clip-rule:evenodd;fill:#33363E;}
	.st1{fill-rule:evenodd;clip-rule:evenodd;fill:#A5B02E;}
	.st2{fill-rule:evenodd;clip-rule:evenodd;fill:#636913;}
	.st3{fill-rule:evenodd;clip-rule:evenodd;fill:#6B6C32;}
	.st4{fill-rule:evenodd;clip-rule:evenodd;fill:#EBECAE;}
	.st5{fill-rule:evenodd;clip-rule:evenodd;fill:#F5F2CB;}
	.st6{fill-rule:evenodd;clip-rule:evenodd;fill:#F5F4C3;}
	.st7{fill-rule:evenodd;clip-rule:evenodd;fill:#C2C579;}
	.st8{fill-rule:evenodd;clip-rule:evenodd;fill:#E5E5AE;}
	.st9{fill-rule:evenodd;clip-rule:evenodd;fill:#F6F3D5;}
	.st10{fill-rule:evenodd;clip-rule:evenodd;fill:#69673C;}
</style>
<g>
	<g>
		<path class="st0" d="M50.5,100c-15.8,0-31.6,0-47.4,0c-1.5,0-2.1,0-2.1-2C1,66.5,1,34.8,0.9,3.2c0-2,0.6-2.2,2.4-2.2
			C34.8,1,66.2,1,97.7,1c1.7,0,2.4,0.1,2.4,2.2c-0.1,31.6-0.1,63.3,0,94.9c0,1.9-0.5,2-2.1,2C82.1,100,66.3,100,50.5,100z"/>
		<path class="st1" d="M42.1,94c-12.2-2.4-21.9-8.8-28.7-19.1C0.5,55.8,5,30.3,23.7,16.2c23-17.4,52.6-7.8,64.4,13.7
			c5,9.1,6.5,18.7,4.7,28.9c-3.1,1.8-4.6-0.9-6.2-2.5c-9.2-8.9-18.1-18.1-27.1-27.1c-1.8-1.8-3.6-3.5-5.4-5.1
			c-0.5-1-1.4-1.6-2.4-1.9c-3.6,3.1-1.8,6.2-0.2,9.4c0.7,0.8,0.9,1.7,0.8,2.7c-2,5.4-3.1,11-2.4,16.8c0.2,1.7,0.3,3.2-0.4,4.8
			c-0.9,1.6-2.5,2-4.1,2.5c-4.3,0.3-6.1,2.8-7,6.9c-1.2,5.4,0.6,9.3,4.7,12.5c1.1,0.9,2.8,1,3.5,2.6c1.3,3.7,5.3,4.8,7.5,7.7
			c1.2,1.7,3.6,3,2.4,5.4c-1,2.1-3.3,1-4.9,1C48.3,94.4,45.1,95,42.1,94z"/>
		<path class="st2" d="M50.8,34c-0.3-0.6-0.6-1.1-0.9-1.7c0.3-3.6-1.5-7.6,2.5-10.3c1-0.3,1.9,0.1,2.8,0.2c1.8,0,2.2,1.8,3.2,2.8
			c10.9,10.8,21.8,21.7,32.7,32.6c0.5,0.5,1,0.8,1.6,1.2c-2.1,11.4-7.5,20.8-17.3,27.3C74,87,72.7,88,71.3,88.9
			c-8.5,5.7-18.1,6.8-28,5.9c-0.4,0-0.8-0.5-1.2-0.8c3.8,0,7.6,0,11.4,0c0.6,0,1.4,0.1,1.7-0.6c0.3-0.7-0.4-1.2-0.9-1.6
			c-2.8-2.8-5.6-5.6-8.4-8.5c-0.6-0.6-1.9-1.1-1.1-2.4c0.8-1.1,2-1.4,3.3-1.4c6.9,0.2,11.6-2.6,13.7-9.6c1.5-4.9-1.9-10.6-6.9-11
			c-1,0.3-2,0.4-3-0.2c-0.5-0.3-0.8-0.7-1.1-1.3c-0.3-0.8-0.4-1.7-0.5-2.5C49.2,48,49.3,40.9,50.8,34z"/>
		<path class="st3" d="M51.8,55.7c0.1,0.8,0.1,1.5,0.2,2.3c-0.9,1.9-2.7,2.3-4.3,3.1c-2.7,1.4-4.6,3.3-4.7,6.5
			c-0.1,2.3,0.6,4.8,3.1,5.1c3.1,0.3,6.9,1.7,9.4-1.2c2.1-2.5,1.4-5.6-0.4-8.3c-1.1-1.7-4.1-2.2-3-5.1c0.9-0.1,1.7-0.3,2.1-1.2
			c4.6,0.9,7,3.4,7.9,8c1,5.2,0,9.9-4.5,13.1c-2.4,1.7-5.1,3-8.2,2.8c-5.9-0.9-10.1-3.8-11.8-9.8c-1.7-6,1.8-12.2,7.8-13.9
			c0.8-0.9,1.5-1.9,2.9-1C49.3,54.8,50.5,54.7,51.8,55.7z"/>
		<path class="st4" d="M45.2,56.9c-1.2,0.9-2.5,1.7-3.5,2.7c-5.5,5.4-4.3,14.4,2.5,18.2c1.6,0.9,3.2,1.6,4.8,2.5l0.3,0.4L49,81
			c-1.4,0.4-2.8,0-4.2-0.1c-2.5-1.5-5.1-3.1-6.7-5.7c-3.9-6.4-2.4-14.5,4.8-19.6C44.3,54.7,45.1,55.4,45.2,56.9z"/>
		<path class="st5" d="M53,22.9c-0.6,0.7-0.8,1.5-0.7,2.3c0.3,2.9-0.1,3.9-2.4,7.1c-2.4-0.4-1.1-2.9-2.2-3.9
			c-0.8-0.8-2.6-0.9-0.5-2.3c0.8-0.5,0.1-1.5,0.2-2.2c0.3-1.5-3.1-0.8-1.5-2.8c1.5-1.7,3.3-2.8,5.7-1.8c0.4,0.2,0.8,0.6,1.2,0.8
			C53.8,21,53.8,22,53,22.9z"/>
		<path class="st6" d="M51.8,55.7c-1.2,0.4-2.4,0.4-3.7,0.2c0-3.9-0.4-7.9,0.1-11.8c0.2-1.3-2.3-2.2,0-3.8c1.3-0.9,0.3-3.4,0.7-5.2
			c0.2-1,1.1-1.1,1.9-1.2C51.2,41.2,51.5,48.4,51.8,55.7z"/>
		<path class="st7" d="M53,22.9c-0.1-0.9-0.1-1.9-0.2-2.8c1.2,0.3,1.9,1,2.4,2.1C54.8,23.2,53.8,22.9,53,22.9z"/>
		<path class="st8" d="M49,81c0-0.2,0-0.5,0-0.7c2.7-0.2,5.1-1.5,7.3-2.9c6.1-3.8,6.9-13,1.5-18.1c-1.1-1-2.4-1.7-3.6-2.5
			c-0.1-1.1,0-2,1.5-1.4c6.7,2.6,10,11.5,6.7,18.3C59.6,79.2,54.9,81.9,49,81z"/>
		<path class="st9" d="M52,58c1,0.6,2,1.1,3,1.7c5.9,3.9,5.9,12.4-0.1,16.3c-1.1,0.7-2.1,1.6-3.2-0.4c-0.7-1.2-2.9-1.2-3.5-0.2
			c-1.5,2.5-2.9,0.9-4,0.1c-3-2-4.4-5.1-4-8.6c0.4-3.7,2.3-6.5,5.9-7.9C48.1,58.2,50,58.1,52,58L52,58z"/>
		<path class="st10" d="M50.5,70c-1.5,0-2.3,0-3.1,0c-0.3,0-0.7-0.2-0.8-0.4c-0.2-0.6,0.4-0.7,0.8-0.8c0.8-0.1,1.6-0.2,2.4-0.2
			c1.3,0.1,3.5-0.3,3.4,0.8C53.2,70.6,51,70,50.5,70z"/>
	</g>
</g>
</svg>
