<?xml version="1.0" encoding="utf-8"?>
<!-- Generator: Adobe Illustrator 19.0.0, SVG Export Plug-In . SVG Version: 6.00 Build 0)  -->
<svg version="1.1" id="Layer_1" xmlns="http://www.w3.org/2000/svg" xmlns:xlink="http://www.w3.org/1999/xlink" x="0px" y="0px"
	 viewBox="0 0 99 99" style="enable-background:new 0 0 99 99;" xml:space="preserve">
<style type="text/css">
	.st0{fill-rule:evenodd;clip-rule:evenodd;fill:#33363F;}
	.st1{fill-rule:evenodd;clip-rule:evenodd;fill:#72ABAD;}
	.st2{fill-rule:evenodd;clip-rule:evenodd;fill:#366573;}
	.st3{fill-rule:evenodd;clip-rule:evenodd;fill:#BBD8D5;}
	.st4{fill-rule:evenodd;clip-rule:evenodd;fill:#EBF0E7;}
	.st5{fill-rule:evenodd;clip-rule:evenodd;fill:#E6F4E1;}
	.st6{fill-rule:evenodd;clip-rule:evenodd;fill:#80968E;}
	.st7{fill-rule:evenodd;clip-rule:evenodd;fill:#CCEFE9;}
	.st8{fill-rule:evenodd;clip-rule:evenodd;fill:#B7D9D2;}
	.st9{fill-rule:evenodd;clip-rule:evenodd;fill:#778274;}
	.st10{fill-rule:evenodd;clip-rule:evenodd;fill:#C2DDD5;}
	.st11{fill-rule:evenodd;clip-rule:evenodd;fill:#637F79;}
	.st12{fill-rule:evenodd;clip-rule:evenodd;fill:#B9D6CD;}
	.st13{fill-rule:evenodd;clip-rule:evenodd;fill:#E5F9EE;}
	.st14{fill-rule:evenodd;clip-rule:evenodd;fill:#D7F8F4;}
	.st15{fill-rule:evenodd;clip-rule:evenodd;fill:#D5F8F2;}
	.st16{fill-rule:evenodd;clip-rule:evenodd;fill:#E5E7D6;}
	.st17{fill-rule:evenodd;clip-rule:evenodd;fill:#EEF0DE;}
	.st18{fill-rule:evenodd;clip-rule:evenodd;fill:#7B8E85;}
	.st19{fill-rule:evenodd;clip-rule:evenodd;fill:#7C8877;}
	.st20{fill-rule:evenodd;clip-rule:evenodd;fill:#869286;}
	.st21{fill-rule:evenodd;clip-rule:evenodd;fill:#B8D9DB;}
	.st22{fill-rule:evenodd;clip-rule:evenodd;fill:#AEC7C2;}
	.st23{fill-rule:evenodd;clip-rule:evenodd;fill:#AECFCF;}
	.st24{fill-rule:evenodd;clip-rule:evenodd;fill:#AFCDC8;}
	.st25{fill-rule:evenodd;clip-rule:evenodd;fill:#BDE1E6;}
	.st26{fill-rule:evenodd;clip-rule:evenodd;fill:#B2CFCD;}
	.st27{fill-rule:evenodd;clip-rule:evenodd;fill:#C3D7D9;}
	.st28{fill-rule:evenodd;clip-rule:evenodd;fill:#DBF1EC;}
	.st29{fill-rule:evenodd;clip-rule:evenodd;fill:#DDF1E9;}
	.st30{fill-rule:evenodd;clip-rule:evenodd;fill:#BFE4EA;}
	.st31{fill-rule:evenodd;clip-rule:evenodd;fill:#B0D3D6;}
	.st32{fill-rule:evenodd;clip-rule:evenodd;fill:#BDE8ED;}
	.st33{fill-rule:evenodd;clip-rule:evenodd;fill:#CEE7E3;}
	.st34{fill-rule:evenodd;clip-rule:evenodd;fill:#DDF7F6;}
	.st35{fill-rule:evenodd;clip-rule:evenodd;fill:#DBF5F3;}
	.st36{fill-rule:evenodd;clip-rule:evenodd;fill:#798D86;}
	.st37{fill-rule:evenodd;clip-rule:evenodd;fill:#DCF6F5;}
	.st38{fill-rule:evenodd;clip-rule:evenodd;fill:#717F75;}
	.st39{fill-rule:evenodd;clip-rule:evenodd;fill:#D8E4D3;}
	.st40{fill-rule:evenodd;clip-rule:evenodd;fill:#F8F4DC;}
	.st41{fill-rule:evenodd;clip-rule:evenodd;fill:#61736A;}
	.st42{fill-rule:evenodd;clip-rule:evenodd;fill:#556D60;}
</style>
<g>
	<g>
		<path class="st0" d="M100,50.5c0,15.8,0,31.6,0,47.4c0,1.5,0,2.1-2,2.1c-31.6-0.1-63.3-0.1-94.9,0c-2,0-2.2-0.6-2.2-2.4
			C1,66.2,1,34.8,1,3.3c0-1.7,0.2-2.4,2.2-2.4C34.8,1,66.4,1,98.1,0.9c1.9,0,2,0.6,2,2.1C100,18.9,100,34.7,100,50.5z"/>
		<path class="st1" d="M51.8,94.8C28.4,96,5.1,77.2,6.3,49.4c1.1-25.8,22.4-43,46.1-41.8C79.8,9,98,35.3,92.8,58.8
			c-2.8,1.9-4.3-0.5-5.9-2c-6.2-5.8-11.9-12-17.9-18c-0.4-0.2-0.8-0.3-1.3-0.5c-1.5-0.6-3-0.4-4.5,0.1c-0.4,0-0.9,0.1-1.3,0
			c-1.7-0.3-3.4-0.6-5.1-0.1c-0.4,0.1-0.9,0.1-1.3,0.1c-0.7,0-1.3-0.1-2-0.2c-1-0.4-2.2-0.6-3.2-1.1c-2-2.2-4.6-3.5-6.6-5.7
			c-2.1-1.5-3-4.3-5.8-5.1c-0.6-0.3-1.1-0.6-1.6-0.9c-0.8-0.2-0.6,0.3-0.4,0.7c0.2,0.4,0.3,0.7,0.3,1.1c0.1,0.8,0.3,1.7,0.5,2.5
			c0.2,0.6,0.4,1.3,0.6,1.9c0.2,0.4,0.3,0.9,0.4,1.3c0,0.5,0.1,0.9,0,1.4c-2.3,5.6,0.4,11.1,0.1,16.6c0.1,0.8,0,1.5-0.3,2.2
			c-0.6,0.8-1.1,1.7-1.5,2.6c-0.5,0.9-1.3,1.4-2.1,1.9c-3,1.3-4.5,3.7-4.6,6.9c1.4,5.2,6.1,7.6,9.3,11.4c0.8,0.8,1.8,1.5,2.2,2.7
			c1.9,4.6,6.2,7.1,9.2,10.7C51.5,91,53.6,92.3,51.8,94.8z"/>
		<path class="st2" d="M36.1,52.8c0-0.6-0.1-1.3-0.1-1.9c-0.7-6.3-0.7-12.5,0-18.8c0-0.5-0.4-0.9-0.8-1.1c-0.6-1.4,0.6-2,1.4-2.7
			c0.4-0.1,0.9-0.1,1.3-0.1c1.4,1.2,3.5,0.3,4.8,1.8c0.4,0.2,0.7,0.3,1.2,0.4c0.4,0,0.8-0.2,1.1-0.4c2.7,1.2,4.3,3.6,6.1,5.8
			c-0.3,1.1-1.1,1.5-2.1,1.6c-0.5,0-0.9,0.1-1.4,0.1c-1.1,0.1-2.1,0.5-2.6,1.6c-0.1,0.4-0.4,0.7-0.7,1.1C43,42,42.4,43.9,43,46.1
			c0.2,0.3,0.3,0.7,0.4,1.1c0.2,0.5,0.4,0.9,0.8,1.3c0.9,0.6,1.8,0.7,2.8,0.7c1.4-0.1,2.5-0.5,2.9-2c0-0.5,0.2-0.9,0.4-1.3
			c0.8-2.9,0.9-6.1,3-8.6c0.2-0.1,0.4-0.2,0.6-0.3c0.6,0.1,1.2,0.2,1.9,0.3c3.4,1.6,3,5.1,4.1,7.9c3.8,1.4,5.8,0.6,6.6-2.7
			c0.4-1.6,0.6-3.2,1.4-4.7c0.3-0.3,0.7-0.6,1.2-0.7c2-0.3,2.9,1.4,4.1,2.5c5.3,5.3,10.6,10.6,15.9,15.8c1.2,1.2,2.5,2.2,3.7,3.3
			c-0.8,7.9-4.5,14.8-9.4,20.6c-3.8,4.6-8.5,8.7-14.5,11c-3.9,1.5-7.6,3.2-11.7,4.1c-1.8,0.4-3.6,0.6-5.4,0.4
			c-3.1-4.1-7.1-7.3-10.5-11.1c-1.1-1.2-2.6-2.1-3.2-3.7c0-0.5-0.1-1,0.1-1.5c0.9-2.8,0.7-6.5,3.9-7.6c3.2-1.1,3.6,3.3,6,4.3
			c1,0.8,2,1.5,3.2,2c0.6,0.2,1.1,0.4,1.7,0.6c0.4,0.1,0.8,0.2,1.2,0.2c1.2,0.2,2.4,0.1,3.6-0.2c2.4-0.6,4.4-1.8,6-3.6
			c0.8-0.8,1.4-1.7,2.1-2.7c0.3-0.3,0.7-0.6,1.1-0.9c1.2-0.5,2.1,0,3,0.8c0.5,0.4-0.4,0.6,0.3,0.5c0.1,0,0.1,0.2-0.2-0.3
			c-0.6-0.8-1.5-1.2-2-2c-0.2-0.4-0.3-0.8-0.4-1.3c-0.2-1.9-0.5-3.8-1.4-5.5c-0.2-0.3-0.4-0.7-0.6-1c-0.2-0.3-0.4-0.6-0.6-0.9
			c-0.2-0.3-0.4-0.6-0.6-0.9c-0.2-0.3-0.4-0.5-0.7-0.8c-0.1-0.1-0.2-0.3-0.3-0.4c-0.2-0.2-0.5-0.5-0.7-0.7c-0.1-0.1-0.3-0.3-0.4-0.4
			c-0.3-0.2-0.5-0.5-0.8-0.7c-0.2-0.1-0.3-0.2-0.4-0.4c-0.5-0.3-1-0.6-1.5-0.9c-0.5-0.2-1.1-0.4-1.6-0.6c-0.8-0.2-1.5-0.3-2.3-0.3
			c-1,0-2,0.2-3,0.5c-0.6,0.2-1.2,0.4-1.8,0.7c-3.5,1.4-6.2,4-6.5,7.6c-0.4,5.5-4.3,8.9-6.5,13.3c-1.1,0.1-1.9-0.5-2.6-1.2
			c-3.3-3.4-6.7-6.9-10-10.3c1.5-3.6,4.7-5.4,7.8-7.2c0.4-0.2,0.9-0.3,1.3-0.3c0.5,0.1,1,0.3,1.4,0.5c-0.1,0,0-0.1,0-0.1
			c-0.3-0.3-0.5-0.7-0.5-1.1c0-0.8,0.6-1.5,0.7-2.3C35.8,54.1,35.9,53.5,36.1,52.8z"/>
		<path class="st3" d="M37.8,76.8c0.2-0.6,0.3-1.3,0.6-1.9c1.9-3.8,3.7-7.4,4.1-11.9c0.4-4.6,3.9-7.9,8.6-9.4
			c0.2-0.1,0.5-0.1,0.7-0.2c0.5,0.2,0.7,0.6,0.9,1c0,1.3-0.7,2.2-1.3,3.3c-1.8,1.9-3.8,3.8-4.9,6.2c-1.5,1.8-1.6,3.5-0.2,5.4
			c1.5,2,2.5,4.3,2.5,6.9c-0.2,0.5-0.5,0.8-1,0.9c-2-0.7-3-2.4-4-4.1c-1.3-2.1-2-2.1-3,0.2c-1,2.2-1.7,4.5-2.5,6.8
			C36.2,79.2,37.7,77.9,37.8,76.8z"/>
		<path class="st4" d="M44.8,30c0,0.2,0,0.5,0,0.7c-0.1,0.5-0.4,0.9-0.8,1.1c-2.7,0.1-5.3-0.1-6.9-2.9c-0.3-1.7,0.5-3,1.8-4
			c1.5-1.2,1.8,0.6,2.6,1C43,27,43.7,28.7,44.8,30z"/>
		<path class="st5" d="M34.9,27c-1.2,0.3-2.3,0.1-3.1-0.9c-1-1.2-2.5-2.6-1.3-4.2c1.1-1.5,2.6-0.6,4,0c1.3,0.6,2.9,0.7,3.4,2.3
			C37.5,25.7,37,27.2,34.9,27z"/>
		<path class="st6" d="M56.8,47.1c-1.5-3.1-0.5-6.5-1-9.8c0.1-0.1,0.3-0.3,0.4-0.4c1.9-0.6,3.8-0.6,5.7,0c0.4,0,0.8,0.1,1.3,0.1
			c1.9-0.8,3.8-1.4,5.8-0.2l0.3,0.4C69.1,37.4,69,37.7,69,38c-2.1,2.1-4.3,4.2-7.4,4.6C58.9,43.1,59.6,46.9,56.8,47.1z"/>
		<path class="st7" d="M35.9,32.1c0,6.3,0,12.5,0,18.8c-1.7-1.6-0.7-3.7-0.9-5.6c-0.2-1.5,0.9-3.4-1.2-4.4c-0.5-0.2-0.6-0.8-0.1-1.2
			c2.6-1.9,0.8-4.5,1.2-6.8c-0.2-0.4-0.1-0.7,0.2-0.9C35.3,32.1,35.6,32.1,35.9,32.1z"/>
		<path class="st8" d="M34,59c-3.2,1.8-6.7,3.1-8.8,6.3c-0.7-0.6-1.2-1.4-0.4-2.1c2.9-2.2,4.9-5.4,8.2-7.2C34,56.8,34.3,57.8,34,59z
			"/>
		<path class="st9" d="M34.9,27c0.6-1.4,1.7-2.3,3.1-2.9c0.3,0.3,0.7,0.6,1,0.9c0.3,1.7-0.1,3.2-1.8,4l-0.1,0
			c-0.2-0.3-0.4-0.4-0.7-0.4c0,0-0.4,0.1-0.4,0.1c0,0-0.4,0.1-0.4,0.1l-0.4-0.1C34.9,28.1,34.9,27.6,34.9,27z"/>
		<path class="st10" d="M68.9,36.7c-1.9,0.1-3.9,0.1-5.8,0.2C66.2,34.5,67.2,34.5,68.9,36.7z"/>
		<path class="st11" d="M34,59c-3.8,0.2-0.2-2.1-1-3c0.7-0.3,1.3-0.5,2-0.8c0.6-0.7,1.3-0.8,2-0.2c-0.3,0.7-0.7,1.4-1,2.1
			C35.6,58,34.7,58.5,34,59L34,59z"/>
		<path class="st12" d="M37,27c0,0.7,0,1.4,0,2.1c-1,0.3-1.6,1-2,1.9c-1.3-0.7-0.6-1.5-0.1-2.3C35.6,28,35.9,27,37,27L37,27z"/>
		<path class="st13" d="M37,54.9c-0.7,0.1-1.3,0.2-2,0.2c-1.8-1.8-0.2-2,1.1-2.4C37.1,53.2,37.2,54,37,54.9z"/>
		<path class="st14" d="M61.8,36.9c-1.9,0-3.8,0-5.7,0C58.1,35.5,59.9,35.4,61.8,36.9z"/>
		<path class="st15" d="M47.9,36c1-0.1,2-0.1,3-0.2c1,0.3,2.3,0,3,1.1L54,37C51.7,38.5,49.4,39.7,47.9,36z"/>
		<path class="st2" d="M35.1,32c-0.1,0.3-0.1,0.6-0.2,0.9c-0.4-0.2-0.4-0.4-0.2-0.7C34.8,32.1,34.9,32.1,35.1,32z"/>
		<path class="st16" d="M56.8,47.1c0-2.1,0.1-4.2,0-6.4c0-1.9,1.4-1.9,2.6-2.8c2.1-1.5,1.9,3.7,4.1,0.9c1.3-1.7,3.7-0.6,5.5-0.8
			c0.2,1.5,0.3,2.9,0.5,4.4c0.2,1.6,0.8,3.4,0,4.8c-1,1.7-3,0.6-4.6,0.9c-0.6,0.1-1.5,0-1.7,0.7c-0.8,2.8-3.2,2-4.9,1.8
			C56.2,50.4,57.7,48.1,56.8,47.1z"/>
		<path class="st17" d="M40.3,47.9c-0.3-3.4,0.1-6.7,0.8-10c3.5-2,7.2-0.1,10.7-0.3c1.6-0.1,1.8,1.3,1.7,2.5
			c-0.2,2.6,0.5,5.3-0.5,7.9l-0.2,0c-0.3,0.4-0.6,0.7-0.9,1C47.9,49.6,43.9,50.5,40.3,47.9z"/>
		<path class="st18" d="M49.9,55.5c0.6-0.7,1.8-0.4,2.1-1.5c1.2-0.9,2.5-0.3,3.8-0.5c2.7,0,5.1,1.1,7.3,2.5L63,55.9
			c0.3,0.4,0.7,0.8,1.1,1.1L64,56.9c0.3,0.4,0.7,0.8,1.1,1.1L65,57.9c0.3,0.4,0.7,0.8,1.1,1.1L66,58.9c0.5,0.6,0.4,1.6,1.1,2.1
			l0-0.1c1,2.3,1.1,4.8,1.9,7.1c0,0.3,0,0.7,0,1c-0.8,0.9-1.3,2-1.9,3.1l0.1-0.1c-0.6,0.7-1.2,1.6-2.3,1.6c-0.5-0.1-0.9-0.2-1.3-0.6
			c-1.3-1.5-0.4-3.2-0.3-4.8c0.5-6.1-2.3-9.4-8.4-9.9c-1.9-0.1-4.1,0.8-5.3-1.6C49.5,56.3,49.6,55.9,49.9,55.5z"/>
		<path class="st19" d="M53,47.9c0-1.8,0-3.6,0.1-5.4c0.1-4.3-0.1-4.5-4.2-4.5c-2.6,0-5.2-0.1-7.8-0.2c0-0.3,0-0.5,0.1-0.8
			c1.8-1.4,4.1,0.1,5.9-1c0.3-0.1,0.5-0.1,0.8-0.1c1.8,1.9,4.1,0.6,6.1,1C53.7,40.7,54.9,44.4,53,47.9z"/>
		<path class="st20" d="M40.3,47.9c1.9-0.7,4.7,1.6,5.8-1.7c0.2-0.6,0.8-0.4,0.9,0.1c0.6,3.2,3.2,1.3,4.8,1.9
			c-0.1,3.5-3.7,0.8-4.7,2.7c-1.8,0.1-3.6,0.6-5.3-0.7c0-1.4-1.6-0.2-1.8-1.2C40.1,48.6,40.2,48.3,40.3,47.9z"/>
		<path class="st21" d="M67,72.1c0.1-1.4-0.3-3,1.9-3.1c2.2,2.7,3.5,5.9,4.8,9.1c0.3,0.7,0.2,1.4-0.6,1.6c-0.8,0.2-1.2-0.4-1.2-1.1
			c-0.2-2.2-1.3-4-2.2-6C69.1,71,68,71.8,67,72.1z"/>
		<path class="st22" d="M47.2,50.8c0-1.4,0.9-1.8,2.1-1.9c0.9,0,1.9,0,2.6-0.8c0.3-0.1,0.7-0.2,1-0.3c0.2,1.7,0.4,3.4-2.2,3.1
			C49.4,50.9,48.3,50.9,47.2,50.8z"/>
		<path class="st23" d="M37,59c0.6-0.3,1.9,0.3,1.3-1.2c-0.2-0.5-0.4-1,0-1.3c0.5-0.4,0.9,0.1,1.2,0.4c1,1.1,3.2,2.3,2.3,3.3
			C40.3,61.8,38.4,60.4,37,59L37,59z"/>
		<path class="st24" d="M65.3,75.3c-1.7,2.8-4.4,3.7-7.3,4.4c-0.3-0.4-0.5-0.8-0.6-1.3c0.3-1.9,1.3-3.3,2.8-4.4
			c0.4-0.3,0.9-0.5,1.4-0.5c0.5-0.1,1,0,1.5,0.2c0.5,0.2,0.9,0.3,1.4,0.5C64.9,74.5,65.2,74.9,65.3,75.3z"/>
		<path class="st25" d="M63.1,56c-2.4-0.7-4.7-1.4-7.1-2.1c0-0.2,0-0.5,0-0.7c0.9,0,1.9,0,2.8,0c0.4,0.2,0.8,0.4,1.2,0.6
			C61.2,54.3,62.6,54.5,63.1,56z"/>
		<path class="st26" d="M69,68c-1.6-2.1-2-4.6-1.9-7.1C69.4,62.8,69,65.5,69,68z"/>
		<path class="st17" d="M47.1,36.1c-1.8,1.6-4,0.5-5.9,1c-0.3-1,0-1.6,1.1-1.5C43.9,35.7,45.5,35.9,47.1,36.1z"/>
		<path class="st27" d="M53,79.7c-0.3,0.1-0.6,0.1-0.9,0.1c-0.4-0.2-0.8-0.3-1.2-0.5c-1.3-0.3-2.5-0.8-3.3-2L48,77
			c2.3-1.7,3.9-0.8,5.4,1.2C53.5,78.7,53.4,79.2,53,79.7z"/>
		<path class="st28" d="M64.3,50c1.2-2,3.1-0.8,4.7-1c0.1,0,0.3,0.4,0.5,0.6C69.2,49.7,69,50,68.7,50c-1.2,0.1-2.3,0-3.5,0.1
			C64.9,50.4,64.6,50.3,64.3,50z"/>
		<path class="st29" d="M40.1,49c0.7,0,1.3,0,2,0.1c1,0.1,2.2-0.4,3.1,0.5c-1,0.9-2.2,0.2-3.3,0.6C41.2,50,40.1,50.3,40.1,49z"/>
		<path class="st30" d="M53,79.7l0-0.5c1.6-1.7,3.3-1.9,5-0.2c0,0.3-0.1,0.5,0,0.8C56.3,80.1,54.6,80.2,53,79.7z"/>
		<path class="st31" d="M34,59.1c0.5-0.9,0.8-1.8,2-2c0.3,0.7,0.7,1.3,1,2l0.1-0.1C36,59,35,59,34,59.1z"/>
		<path class="st32" d="M56,53.2c0,0.2,0,0.5,0,0.7c-1.3,0-2.7,0.1-4,0.2l0.1,0c-0.3-0.2-0.4-0.4-0.3-0.6c0.1-0.2,0.2-0.3,0.4-0.3
			C53.4,53.1,54.7,53.2,56,53.2z"/>
		<path class="st21" d="M65.4,73c0.5-0.3,1.1-0.7,1.7-1c0.1,1.5-0.6,2.5-1.8,3.3c-0.2-0.2-0.3-0.4-0.5-0.5
			C64.5,74,64.3,73.3,65.4,73z"/>
		<path class="st33" d="M67.1,61c-1-0.4-1.1-1.2-1.1-2.1C67.1,59.2,67.2,60.1,67.1,61z"/>
		<path class="st1" d="M44,31.9c0.3-0.4,0.5-0.7,0.8-1.1C44.8,31.4,44.6,31.8,44,31.9z"/>
		<path class="st18" d="M60.1,53.8c-0.4-0.2-0.8-0.4-1.2-0.6C59.4,53.1,59.8,53.3,60.1,53.8z"/>
		<path class="st16" d="M64.3,50c0.3,0,0.6,0.1,0.9,0.1C64.9,50.4,64.5,50.7,64.3,50z"/>
		<path class="st18" d="M52.1,53.1C52,53.4,52,53.7,52,54c-0.4-0.1-0.7-0.2-1.1-0.3C51.2,53.3,51.6,53.1,52.1,53.1z"/>
		<path class="st34" d="M64.1,57c-0.6-0.1-1.1-0.4-1.1-1.1C63.6,56,64.1,56.3,64.1,57z"/>
		<path class="st35" d="M66.1,59c-0.7,0-1-0.5-1.1-1.1C65.7,57.9,66,58.4,66.1,59z"/>
		<path class="st36" d="M51,79.2c0.4,0.2,0.8,0.3,1.2,0.5C51.6,79.9,51.3,79.7,51,79.2z"/>
		<path class="st37" d="M65.1,58c-0.6-0.1-1-0.5-1.1-1.1C64.7,56.9,65.1,57.3,65.1,58z"/>
		<path class="st36" d="M58,79c-1.7,0.1-3.4,0.1-5,0.2c-1.3-1.5-3.3-1.6-4.9-2.3c-1.6-2.3-3.7-4.2-4.5-7c-0.6-2.4-1.1-4.8,0.4-7.1
			c0.8-0.1,1.5,0.1,2.1,0.5c1.6,8.7,6.5,12.6,15.5,10.8c0.3-0.1,0.5,0.3,0.8,0.6c0.2,0.5,0.1,0.9-0.3,1.3C61.5,78.1,58.9,77.5,58,79
			z"/>
		<path class="st38" d="M44.8,64c-0.3-0.4-0.6-0.7-0.9-1.1c0.6-3.6,3.1-5.7,6-7.4c0,0.5,0.1,0.9,0.1,1.3C50.1,60.5,48.5,63,44.8,64z
			"/>
		<path class="st39" d="M37,27c0.2-0.2,0.3-0.4,0.5-0.6c0,0.1,0,0.3-0.1,0.3C37.3,26.9,37.1,26.9,37,27L37,27z"/>
		<path class="st40" d="M44.8,64c0.6-3.2,2.8-5.3,5.2-7.2c1.1-0.3,2.2-0.7,3.4-0.9c10.3-1.7,15,8.5,11.6,15.3
			c-0.3,0.6-0.5,1.2-0.8,1.8c0.3,1.1-0.6,1.5-1.3,1.9l0.1-0.1c-0.2,0.3-0.5,0.5-0.9,0.4c-1.5,0.5-2.9,1.5-4.6,1.7
			C49.2,78.2,43.5,72.3,44.8,64z"/>
		<path class="st41" d="M62.9,75c0.4-0.6,0.9-1.3,1.3-1.9c0.4,0,0.8,0,1.2,0c-0.2,0.6-0.5,1.2-0.7,1.8C64.1,74.9,63.5,74.9,62.9,75z
			"/>
		<path class="st42" d="M62.1,75.3c0.3-0.1,0.6-0.2,0.9-0.4c0,0.7-0.4,1-1,1.2C62.1,75.8,62.1,75.5,62.1,75.3z"/>
	</g>
</g>
</svg>
