<?xml version="1.0" encoding="utf-8"?>
<!-- Generator: Adobe Illustrator 19.0.0, SVG Export Plug-In . SVG Version: 6.00 Build 0)  -->
<svg version="1.1" id="Layer_1" xmlns="http://www.w3.org/2000/svg" xmlns:xlink="http://www.w3.org/1999/xlink" x="0px" y="0px"
	 viewBox="0 0 99 99" style="enable-background:new 0 0 99 99;" xml:space="preserve">
<style type="text/css">
	.st0{fill-rule:evenodd;clip-rule:evenodd;fill:#33363F;}
	.st1{fill-rule:evenodd;clip-rule:evenodd;fill:#D83A37;}
	.st2{fill-rule:evenodd;clip-rule:evenodd;fill:#952827;}
	.st3{fill-rule:evenodd;clip-rule:evenodd;fill:#89443A;}
	.st4{fill-rule:evenodd;clip-rule:evenodd;fill:#F7E9D5;}
	.st5{fill-rule:evenodd;clip-rule:evenodd;fill:#EEC8B7;}
	.st6{fill-rule:evenodd;clip-rule:evenodd;fill:#F5E5D3;}
	.st7{fill-rule:evenodd;clip-rule:evenodd;fill:#F1CAB9;}
	.st8{fill-rule:evenodd;clip-rule:evenodd;fill:#F6E5D1;}
	.st9{fill-rule:evenodd;clip-rule:evenodd;fill:#EEB2A4;}
	.st10{fill-rule:evenodd;clip-rule:evenodd;fill:#8C5047;}
	.st11{fill-rule:evenodd;clip-rule:evenodd;fill:#834E41;}
	.st12{fill-rule:evenodd;clip-rule:evenodd;fill:#F3DECE;}
	.st13{fill-rule:evenodd;clip-rule:evenodd;fill:#F4E3CD;}
	.st14{fill-rule:evenodd;clip-rule:evenodd;fill:#975E51;}
	.st15{fill-rule:evenodd;clip-rule:evenodd;fill:#ECB1A7;}
	.st16{fill-rule:evenodd;clip-rule:evenodd;fill:#926A57;}
	.st17{fill-rule:evenodd;clip-rule:evenodd;fill:#EED6C4;}
	.st18{fill-rule:evenodd;clip-rule:evenodd;fill:#F4DECD;}
	.st19{fill-rule:evenodd;clip-rule:evenodd;fill:#E89B92;}
	.st20{fill-rule:evenodd;clip-rule:evenodd;fill:#89463D;}
	.st21{fill-rule:evenodd;clip-rule:evenodd;fill:#7E4739;}
	.st22{fill-rule:evenodd;clip-rule:evenodd;fill:#604830;}
</style>
<g>
	<g>
		<path class="st0" d="M1,50.5C1,34.7,1,18.8,1,3c0-1.7,0.3-2.1,2-2.1C34.7,1,66.3,1,98,1c1.7,0,2.1,0.3,2.1,2
			c-0.1,31.7-0.1,63.3,0,95c0,1.7-0.3,2.1-2,2.1c-31.7-0.1-63.3-0.1-95,0c-1.7,0-2.1-0.3-2.1-2C1,82.2,1,66.3,1,50.5z"/>
		<path class="st1" d="M53,94.8C32,95.3,13.4,81.5,8.3,60.8c-4.4-17.9,3.6-35.4,17.2-45.1c7.9-5.7,16.6-9.2,26.4-8.6
			C65.9,8,77.5,13.6,86,25c4.4,6,7.5,12.5,8.1,20c0.9,2.3,0.3,4.6,0.4,6.9c0.1,3.3-1.8,3.1-3.9,2c-1.3-0.7-2.4-1.8-3.4-2.9
			c-6.4-7.2-14.4-12.8-20-20.8c-0.7-1.1-2.3-1.3-3.2-2.3c-1.8-2.7-4.3-3.5-7.6-3.3c-4.1,0.2-8.2,0.1-12.3,0c-2-0.1-3.5,0.5-4.2,2.5
			c-0.3,0.9-0.5,1.8-0.7,2.7c-1.7,5.8-0.3,11.2,2.4,16.4c1.2,1.7,1,4.3,3.4,5.2c0.6,0.4,1.1,0.9,1.6,1.4c0.3,0.4,0.5,0.8,0.7,1.3
			c0.1,0.5,0.1,1,0.1,1.5c0,0.7,0,1.5-0.2,2.2c-1,1.8-1.8,3.7-2.3,5.7c-0.2,0.7-0.3,1.3-0.5,2c-0.5,2-1,4.1-0.9,6.2
			c0,0.5,0.1,0.9,0.2,1.4c0,2.3,1,4.3,2.3,6.1c0.4,2.9,3.5,3.3,5,5.2c1.3,1.5,2.9,2.8,4.1,4.3C58.1,92.2,57.5,93.7,53,94.8z"/>
		<path class="st2" d="M64.9,26.9c5.6,2.6,8.8,7.9,13.2,11.8c4.8,4.3,9.2,9,13.7,13.6c0.5,0.4,0.9,1.1,1.6,0.9
			c0.8-0.2,0.6-1,0.6-1.7c0-2.1,0.1-4.3,0.1-6.4c0.8,0.5,0.9,1.3,0.9,2.2c0.3,17.5-6.2,31.6-21.4,40.9c-3.9,2.4-7.9,5.3-13.1,5.2
			c-2.4,0-4.7,2.4-7.6,1.5c2.8-1.8,2.9-2.1,1.1-4.2c-2.2-2.4-4.6-4.8-7-6.9c-1.2-1.1-2.5-2.2-3.1-3.8c2.2-3.5,5.8-2.1,8.9-2.3
			c2.8-0.2,4.9-0.7,4.4-4.2c0.1-0.5,0.2-0.9,0.3-1.4c1-2.3-0.1-4.6-0.2-6.9c-0.1-0.7-0.3-1.4-0.5-2.1c-0.9-2.3-1-4.8-1.3-7.2
			c-0.1-0.8-0.2-1.5-0.4-2.2c0.3-2,0.4-4.1,0.9-6c0.6-0.8,1-1.7,2-2c0.6-0.1,1.1,0,1.5,0.4c0,0,0.2,0.3,0.2,0.3
			c0.2-0.2,0.4-0.3,0.6-0.5c0.4-0.4,0.7-0.7,1-1.2c1.8-5,3.4-10.1,1.7-15.5c-0.1-0.8,0.1-1.5,0.6-2.1C63.9,26.7,64.3,26.7,64.9,26.9
			z"/>
		<path class="st3" d="M57,54.2c0,0.7,0,1.3-0.1,2c-2.6,5.1-7.2,5.3-10.8,0.5c0-0.6-0.1-1.2-0.1-1.8c2-4.6-0.2-9.4,0.7-13.9
			c-0.3,0.8-0.2,1.6-0.2,2.3c0,3.5,1.3,7.3-2.8,9.7c-1.9-0.2-2.3-1.7-2.7-3.1c-0.3-0.9-0.1-2-0.9-2.8c-1.8-5.9-3.5-11.8-2.5-18
			c-0.2-0.7-0.4-1.4-0.6-2.2c3.9-3,22.6-3.6,26.5-0.8c0.2,0.2,0.3,0.6,0.4,0.9c0,0.7,0.1,1.5,0.1,2.2c0.6,0.8,0.9,1.7,0.3,2.7
			c-0.5,0.6-1.2,0.6-1.9,0.4c-0.7-0.3-1.2-0.9-1.9-1c-0.3,0.1-0.6,0.3-0.8,0.5c-0.7,1.3,0,2.8-0.4,4.2c-0.5,1.4-1.1,2.6-2.4,3.3
			C54,44.2,54.6,49.2,57,54.2z"/>
		<path class="st4" d="M59,72.9c1.9,1.1,2.1,2.9,1.5,4.8c-0.6,1.9-2.3,2.2-4.1,2.2c-4.2,0-8.3,0.1-12.5,0.1c-3.3-2.5-3.3-2.5-2-7
			c1-1.1,1.8-2.5,3.6-2.4c3.5,0.3,6.9,0.4,10.4,0C57.6,70.5,58.4,71.6,59,72.9z"/>
		<path class="st5" d="M59,64.9c0.3,2.3,2.1,4.5,0,6.8c-1.3,0.2-2.5-1-3.8-0.2c-2.8,1.7-5.7,1.5-8.4,0.1c-1.6-0.9-3,1.3-4.6,0.1
			c-0.4-2.4,0.1-4.6,0.8-6.8C48.4,61.7,53.7,61.7,59,64.9z"/>
		<path class="st6" d="M46.1,56.6c3.7,1.1,7.3,1.5,10.8-0.5c1.7,1.9,1.6,4.3,1.9,6.6c-0.1,0.1-0.2,0.4-0.3,0.4
			c-5.1,0.9-10.3,1.6-15.4-0.2c-0.2-1.8,0.4-3.5,0.7-5.3C44.2,56.1,45.2,56.6,46.1,56.6z"/>
		<path class="st7" d="M64,27c-0.9-0.9-2-0.9-3.2-0.9c-6.6,0-13.2,0-19.8,0c-1.4,0-2.6,0.3-3.8,0.8c0.1-2.8,2.2-3.6,4.4-3.6
			c6.1-0.1,12.2-0.2,18.3,0c2.2,0.1,4.8,0.4,5,3.5C64.6,26.9,64.3,26.9,64,27z"/>
		<path class="st8" d="M46,39.9c0.2-1.6,0.4-3.3,0.5-4.9c0.4,1.5,1,3,1.2,4.6c0.6,3.9,1.1,7.8,1.7,11.7c0.5,3.5,0.6,3.5-3.4,3.5
			l0,0.1c-0.4-0.3-0.7-0.6-1.1-0.8c-0.4-0.4-0.8-0.8-1.2-1.3c0.5-3.6,1-7.3,1.5-10.9C45.6,41.3,45.5,40.5,46,39.9z"/>
		<path class="st9" d="M37.7,29.1c0.8,6,1.6,12,2.5,18c-0.5,0.4-0.9,0.4-1.1-0.2c-1.5-4.7-2-9.7-3-14.5
			C35.8,30.9,36.4,29.7,37.7,29.1z"/>
		<path class="st10" d="M42.2,71.7c1.3-0.4,3-1.4,3.7-1c4.3,3.1,9-1.8,13.1,1c0,0.4,0,0.8,0,1.2c-2.9-1.5-5.4,0.7-8,0.8
			c-2.6,0-5.1-2.3-8-0.7c-0.3,0.1-0.6,0-1,0.1C42.1,72.6,42.1,72.1,42.2,71.7z"/>
		<path class="st11" d="M43.2,62.9c1.7,0.8,3.3,1.3,5,0.1c1.8-1.2,3.7-1,5.5,0.1c1.8,1,3.4,0.5,5.1-0.3c0.1,0.7,0.1,1.4,0.2,2.1
			c-5.3-0.3-10.7-0.3-16-0.1C43.1,64.2,43.1,63.6,43.2,62.9z"/>
		<path class="st3" d="M45,54.2c0.6,0,1,0.1,1.1,0.8C45.7,54.7,45.4,54.4,45,54.2z"/>
		<path class="st12" d="M57.1,34.9c-0.2-1.4-0.2-2.9-0.6-4.3c-0.6-2.4,1.1-2.2,2.5-2.5c0.7-0.6,1.4-0.7,2.1,0.1
			c1.6,0.2,2,1.3,1.8,2.7c1.1,5.8,0.5,11.3-2.7,16.3c-0.1,0.6-0.2,1.2-0.3,1.7c-0.2,0.4-0.5,0.5-0.7,0c-0.1-0.9-0.2-1.8-0.3-2.8
			c-1.8-2.2-2.6-4.5-1.5-7.4C57.7,37.5,57.8,36.1,57.1,34.9z"/>
		<path class="st13" d="M57,54.2c-0.5,0.1-0.9,0.3-1.4,0.4c-3.6,0.8-3.7,0.6-3.2-2.9c0.8-4.7,1.5-9.4,2.3-14.1
			c0.1-0.6,0.4-1.2,0.6-1.8c0.7,0.7,0.5,1.5,0.6,2.3c0.1,0.3,0.1,0.6,0.2,1c2.1,2.8,1.5,6,1.7,9.2C57.7,50.1,59,52.4,57,54.2z"/>
		<path class="st14" d="M60.2,47.1c0.9-5.5,1.1-11,2.7-16.3c0.3,0.4,0.6,0.8,0.9,1.2c2,3.4-0.2,6.5-0.4,9.8
			c-0.1,1.7-1.4,3.4-0.4,5.2c0,1-0.1,2.2-1.2,2.3C60.6,49.3,61.1,47.6,60.2,47.1z"/>
		<path class="st15" d="M62.9,47c-1.6-1.5-0.7-3.3-0.5-5c0.4-3.3,1.6-6.6,1.3-10c0.1-0.9,0.2-1.8,0.3-2.7c2.2,0.9,2.1,2.5,1.6,4.4
			C64.7,38.1,63.9,42.5,62.9,47z"/>
		<path class="st16" d="M57.9,48.1c-1.4-2.9-1.1-6.1-1.7-9.2c1.3-1.1,0.5-2.7,0.9-4c1.2,3.6,1.5,7.4,1.8,11.2
			C58.5,46.8,58.2,47.4,57.9,48.1z"/>
		<path class="st14" d="M59.2,48.9c0.2,0,0.5,0,0.7,0c-0.1,0.2-0.2,0.4-0.4,0.6C59.4,49.3,59.3,49.1,59.2,48.9z"/>
		<path class="st17" d="M45.4,30.3c-0.9,6.2-1.6,11.5-2.4,16.7c-0.1,0.4-0.3,0.8-0.4,1.2c-0.2-0.4-0.5-0.8-0.6-1.3
			c-0.9-5.5-1.9-11-2.6-16.6c-0.4-2.8,2.1-1.9,3.5-2.1C45.1,28,45.6,29.4,45.4,30.3z"/>
		<path class="st18" d="M50.1,45c-0.7-4.2-1.4-8.4-2-12.7c-0.5-3.7,0.1-4.2,3.5-4c2.5,0.2,2.4,1.7,2.2,3.5c-0.6,4.4-1.3,8.8-2,13.2
			C51.3,45.6,50.7,45.6,50.1,45z"/>
		<path class="st19" d="M50.1,45c0.6,0,1.2,0,1.7,0c0,0.5,0.1,1,0,1.5c-0.1,0.8-0.2,1.8-1.3,1.7c-0.2,0-0.5-1.1-0.6-1.7
			C50,46,50.1,45.5,50.1,45z"/>
		<path class="st2" d="M61,28.1c-0.7,0.2-1.4,0.3-2.1-0.1C59.7,27.1,60.4,27.1,61,28.1z"/>
		<path class="st17" d="M46,39.9c0.1,0.8,0,1.5-0.7,2.1C45.2,41.2,45.4,40.5,46,39.9z"/>
		<path class="st20" d="M44.2,68.8c-0.5,0.1-0.9-0.2-1-0.7c-0.2-0.7,0.3-0.8,0.8-0.9c0.6-0.2,0.8,0.2,1,0.7
			C45.2,68.5,44.7,68.7,44.2,68.8z"/>
		<path class="st21" d="M48.8,68.2c0,0.2-0.3,0.4-0.8,0.5c-0.6,0.1-0.8-0.2-1-0.7c-0.2-0.6,0.3-0.8,0.7-0.9
			C48.3,67.1,48.6,67.3,48.8,68.2z"/>
		<path class="st22" d="M51.8,68.1c-0.2,0.4-0.3,0.9-0.9,0.7c-0.5-0.1-0.8-0.4-0.7-0.9c0.1-0.5,0.4-0.8,0.9-0.7
			C51.6,67.3,51.9,67.5,51.8,68.1z"/>
	</g>
</g>
</svg>
