<?xml version="1.0" encoding="utf-8"?>
<!-- Generator: Adobe Illustrator 19.0.0, SVG Export Plug-In . SVG Version: 6.00 Build 0)  -->
<svg version="1.1" id="Layer_1" xmlns="http://www.w3.org/2000/svg" xmlns:xlink="http://www.w3.org/1999/xlink" x="0px" y="0px"
	 viewBox="0 0 99 99" style="enable-background:new 0 0 99 99;" xml:space="preserve">
<style type="text/css">
	.st0{fill-rule:evenodd;clip-rule:evenodd;fill:#33363F;}
	.st1{fill-rule:evenodd;clip-rule:evenodd;fill:#72ABAD;}
	.st2{fill-rule:evenodd;clip-rule:evenodd;fill:#366573;}
	.st3{fill-rule:evenodd;clip-rule:evenodd;fill:#41666A;}
	.st4{fill-rule:evenodd;clip-rule:evenodd;fill:#E9EFDD;}
	.st5{fill-rule:evenodd;clip-rule:evenodd;fill:#EBF0DE;}
	.st6{fill-rule:evenodd;clip-rule:evenodd;fill:#EEF0DB;}
	.st7{fill-rule:evenodd;clip-rule:evenodd;fill:#EDF0E2;}
	.st8{fill-rule:evenodd;clip-rule:evenodd;fill:#EDF1DC;}
	.st9{fill-rule:evenodd;clip-rule:evenodd;fill:#F2F4E4;}
	.st10{fill-rule:evenodd;clip-rule:evenodd;fill:#F1F1E1;}
	.st11{fill-rule:evenodd;clip-rule:evenodd;fill:#E8ECDB;}
	.st12{fill-rule:evenodd;clip-rule:evenodd;fill:#ECF1E1;}
	.st13{fill-rule:evenodd;clip-rule:evenodd;fill:#EFF0DD;}
	.st14{fill-rule:evenodd;clip-rule:evenodd;fill:#F0F5E1;}
</style>
<g>
	<g>
		<path class="st0" d="M50.4,100c-15.7,0-31.3,0-47,0c-1.5,0-2.5,0.2-2.5-2.1C1,66.2,1,34.6,0.9,2.9c0-2,0.7-1.9,2.2-1.9
			c31.7,0,63.3,0.1,95,0c2,0,1.9,0.7,1.9,2.2c0,31.7-0.1,63.3,0,95c0,2-0.7,1.9-2.2,1.9C82.1,100,66.2,100,50.4,100z"/>
		<path class="st1" d="M45,93.1C27.4,91.7,10.6,77.3,6.9,57.7c-3.7-20,7.9-39.2,23.5-47C52,0,77.5,9.2,88,28.8
			c6.7,12.5,7.3,25.3,1.9,38.4c-0.2,0.6-0.7,1.1-1,1.7c-4.6,1.7-6.2-2.3-8.2-4.7c-2.6-3-5.3-5.3-9.2-6.3c-1.9-1.3-2.2-4-4.2-5.3
			c-1-4.4-5.2-3.8-8.1-5.1c-1.6-3.1-4.8-3.9-7.5-5.6c-1.8-1.9,1-6.4-3.8-6.6c-1.1-0.3-1.9-1.3-3-1.5c-2.1-0.4-2.2,0.7-1.2,2.1
			c0.7,2.1,3.9,2.5,3.7,5.2c-0.7,2.5-5.4,2.1-4.2,5.9c0.1,1.5,1.1,2.8,0.6,4.3c-1.1,1.8-2.7,3.1-4.7,3.9c-1,0.2-2-0.2-2.9-0.3
			c-1.2,0-2.9-1.6-3.4-0.3c-0.6,1.4,2.2,1.4,2.5,3c0.5,2.6-2.3,3.3-3,5.1c-2.5,1.7-1.4,3.5-0.1,5.3c4.1,5.8,9.2,10.7,14.5,15.4
			c1.7,1.5,3.5,3,5,4.8c1,1.2,1.7,2.5,1,4.1c-0.7,1.5-2.2,1.3-3.5,1.3C47.9,93.4,46.4,93.8,45,93.1z"/>
		<path class="st2" d="M72.1,57c0.9-1,0.7-3.6,3.5-1.3c4.8,4.1,8.3,9.4,13.3,13.1c-5.3,11.3-13.8,18.7-25.7,22.4
			c-3.5,1.1-7,1.8-10.6,2.5c-2.5,0.5-5.3,0.9-7.7-0.6c0.3,0,0.7,0,1-0.1c1.8-0.3,4.6,1.1,5.3-1c0.6-1.8-2-3.2-3.5-4.5
			C41.4,81.8,35.1,76,30,69c1.4-2.9,4.2-2.2,6.5-2.5c0.8,0,1.6,0,2.4,0c3,0.1,6-0.3,9-0.5c0.9,0.2,1.9,0.3,2.8,0.3
			c3.3,0.1,6.5,0.1,6.9-4.4c0.1-1.5-0.2-3,0.2-4.4c0.2-0.8,0.7-1.4,1.3-1.9c1.2-0.5,2.3-1.3,3.7-1C65.8,55.6,68.9,56.8,72.1,57z"/>
		<path class="st3" d="M39.4,67.8c-0.9,0-1.9,0-2.8,0c-2.1-2.2-4.3-4.2-5.6-7c-0.7-1.1-0.5-1.8,0.9-1.9c1.1-0.1,2.3,0.1,3.2-0.8
			c-0.3-2.1-0.7-4.2,2-5.2c0.6,0.3,1.3,0.7,1.9,1c0.3,0,0.7-0.1,1,0.1c3.8,1.6,4.5,0.2,3.2-3.2c-0.6-0.9-1.3-1.7-1.9-2.6
			c1.1-3.2,6.1-3.3,6-7.4c-1.7-1.5-4.9,0.1-6-2.7c0.5-2.6,3.1-2.2,4.7-3.1c0.6-0.3,1.2-0.4,1.8-0.4c0.4-0.1,0.8-0.2,1.2-0.4
			c0.3-0.5,0.4-1.7,1.1-1.2c1.1,0.6,2.1,1.6,3,2.6c1.1,1.2,3.3,2.1,3.1,3.6c-0.2,1.7-3.1,0.1-4,1.8c1.2,4,4.9,4.6,8,6
			c1.7-3.8,1.7-3.8,4.7-0.8c1.5,1.5,2.9,3.1,4.4,4.7c-1.2,2.8-3.5,4.2-6.2,5.2c-0.8,0.3-1.6,0.6-2.5,1c-1.4,0-2.2-1.3-3.4-1.8
			c0.5,1.2,2.2,1.6,2,3.2c0.8,1,1.1,2.3,1,3.6c-3.2,1.6-6.4,3.1-8.8,6c-1,0-2.1,0.1-3.1,0.1C44.1,63.5,44.1,63.5,39.4,67.8z"/>
		<path class="st4" d="M31,60.9c0.6,0,1.3,0.1,1.9,0.1c3.5,0.3,4,0.9,4,4.5c0,0.8-0.2,1.6-0.3,2.4c-2,1.7-4.4,0.8-6.6,1.1
			c-2.4-0.9-3-2.7-2.7-5.1C27.5,61.6,29,61,31,60.9z"/>
		<path class="st5" d="M48.8,34.2c0,0.2,0,0.4,0,0.7c-0.3,0.7-0.2,1.6-0.8,2.2c-2.1,1.7-4.7,0.5-6.9,1.1c-0.4-0.3-0.9-0.6-1.1-1
			c-1.6-2.8-1.1-5.9,1-6.8c3-1.3,6.2,0,7.3,3C48.5,33.6,48.6,33.9,48.8,34.2z"/>
		<path class="st6" d="M62.8,56c0.5-4.8,0.5-4.8,6.2-5.2C71,51,72,52,72,54.1c0,1,0.1,2,0.2,3c-1.5,2.9-4.2,1.6-6.5,1.7
			C63.9,58.9,63.2,57.5,62.8,56z"/>
		<path class="st7" d="M43,50.8c0.7,0,1.3,0.1,2,0.1c3.1,0.4,3.8,1.1,3.7,4c-0.1,2.7-0.8,3.3-3.8,3.5c-4.5,0.3-5.2-0.2-6-4.4
			C39.2,51.5,40.9,50.8,43,50.8z"/>
		<path class="st8" d="M47.1,40.7c1.8,1,1.6,2.7,1.5,4.3c-0.1,1.9-1.1,3-3.1,3c-1.5,0-2.9,0.1-4.4,0.1c-1.6-0.9-2.1-2.3-2.1-4
			c0.1-2.2,1-3.3,3.2-3.3C43.9,40.8,45.5,40.7,47.1,40.7z"/>
		<path class="st9" d="M37,52.9c-0.3,1.9,0.6,4.2-2,5.2c-1.3,0-2.7-0.1-4-0.1c-2.8-0.1-3.6-0.9-3.7-3.4c-0.1-2.7,0.9-3.7,4-3.7
			C33.4,50.9,35.7,50.5,37,52.9z"/>
		<path class="st10" d="M60,47c-2.1,1.9-4.6,0.9-7,0.9c-1.1,0-1.8-0.8-1.9-1.9c-0.1-1.7-0.7-3.6,0.8-5c0.6,0,1.3,0,1.9,0
			C59.9,40.8,59.9,40.8,60,47z"/>
		<path class="st11" d="M39.4,67.8c-0.1-0.5-0.2-1-0.2-1.5c-0.2-4.7,3.5-7.2,7.8-5.1c1,0.5,1.5,1.3,1.6,2.4c0.3,1.5,0.1,3-0.4,4.4
			C45.2,69.3,42.3,69.5,39.4,67.8z"/>
		<path class="st12" d="M51.3,67.9c-1.1-7,0.2-7.1,7-6.7c0.6,0,1.2,0.5,1.8,0.8c1.2,7.7-1.2,7.2-7,6.8
			C52.4,68.7,51.8,68.2,51.3,67.9z"/>
		<path class="st13" d="M67.6,61c3.9,0,4.4,0.5,4.4,3.7c0,3.5-0.7,4.2-4.5,4.2c-4,0-4.8-0.6-4.7-4C62.9,61.5,63.6,61,67.6,61z"/>
		<path class="st14" d="M59,58.3c-1.3,0-2.6,0-3.9,0c-3.7-0.2-4.5-1.3-4.1-4.9c0.2-1.6,1-2.4,2.5-2.5c0.8-0.1,1.6-0.1,2.5,0
			c3.9,0,4.1,0.1,4.3,4.1c0,0.7,0,1.3,0.1,2C59.9,57.4,59.4,57.9,59,58.3z"/>
		<path class="st1" d="M48,37c0-0.8,0.2-1.6,0.8-2.2C49,35.7,48.8,36.5,48,37z"/>
	</g>
</g>
</svg>
