<?xml version="1.0" encoding="iso-8859-1"?>
<!-- Generator: Adobe Illustrator 16.0.0, SVG Export Plug-In . SVG Version: 6.00 Build 0)  -->
<!DOCTYPE svg PUBLIC "-//W3C//DTD SVG 1.1//EN" "http://www.w3.org/Graphics/SVG/1.1/DTD/svg11.dtd">
<svg version="1.1" id = "svg" xmlns="http://www.w3.org/2000/svg" xmlns:xlink="http://www.w3.org/1999/xlink" x="0px" y="0px"
	 width="299.455px" height="35.919px" viewBox="0 0 299.455 35.919" style="enable-background:new 0 0 299.455 35.919;"
	 xml:space="preserve">
<g id="music_x5F_lines">
	<line id="music_x5F_line1" style="fill:none;stroke:#8ABCC4;stroke-miterlimit:10;" x1="0" y1="8.333" x2="100" y2="8.333"/>
	<line id="music_x5F_line2" style="fill:none;stroke:#8ABCC4;stroke-miterlimit:10;" x1="0" y1="13.333" x2="100" y2="13.333"/>
	<line id="music_x5F_line3" style="fill:none;stroke:#8ABCC4;stroke-miterlimit:10;" x1="0" y1="18.333" x2="100" y2="18.333"/>
	<line id="music_x5F_line4" style="fill:none;stroke:#8ABCC4;stroke-miterlimit:10;" x1="0" y1="23.333" x2="100" y2="23.333"/>
	<line id="music_x5F_line5" style="fill:none;stroke:#8ABCC4;stroke-miterlimit:10;" x1="0" y1="28.333" x2="100" y2="28.333"/>
</g>
<g id="letters_1">
	<g id="Letters">
		<path id="letter_x5F_R1" style="fill:#A0A0A0;stroke:#000000;stroke-miterlimit:10;" d="M6.987,7.028h4.963
			c1.82,0,3.777,1.572,3.061,4.88c-0.469,2.261-1.847,4.412-4.274,5.184l2.123,7.886l-1.82,0.8L8.724,17.23H6.656l-1.737,8.189
			H3.072L6.987,7.028z M7.015,15.576h2.702c1.627,0,2.84-1.186,3.364-3.667c0.524-2.398-0.469-3.226-2.344-3.226H8.476L7.015,15.576
			z"/>
		<path id="letter_x5F_H1" style="fill:#A0A0A0;stroke:#000000;stroke-miterlimit:10;" d="M21.79,21.054h1.847l-1.268,5.955h5.68
			l1.269-5.955h1.847l-3.061,14.365h-1.847l1.434-6.756h-5.68l-1.434,6.756h-1.847L21.79,21.054z"/>
		<path id="letter_x5F_Y" style="fill:#A0A0A0;stroke:#000000;stroke-miterlimit:10;" d="M46.932,0.696l1.517,0.91l-6.397,8.272
			l-1.186,5.542h-1.847l1.186-5.542L37.31,1.605l1.958-0.91l2.261,7.39L46.932,0.696z"/>
		<path id="letter_x5F_T1" style="fill:#A0A0A0;stroke:#000000;stroke-miterlimit:10;" d="M58.316,22.708h-3.971l0.358-1.654h9.706
			l-0.358,1.654h-3.888l-2.702,12.711h-1.847L58.316,22.708z"/>
		<path id="letter_x5F_H2" style="fill:#A0A0A0;stroke:#000000;stroke-miterlimit:10;" d="M71.409,1.054h1.847L71.988,7.01h5.68
			l1.269-5.956h1.847l-3.061,14.365h-1.847l1.434-6.756h-5.68l-1.434,6.756h-1.847L71.409,1.054z"/>
		<path id="letter_x5F_M" style="fill:#A0A0A0;stroke:#000000;stroke-miterlimit:10;" d="M88.831,23.784h-0.055l-2.84,11.636h-1.958
			l3.64-14.365h2.427l1.268,6.231l3.916-6.231h2.426l-2.481,14.365h-1.958l2.123-11.636h-0.055l-4.853,7.583L88.831,23.784z"/>
		<path id="letter_x5F_T2" style="fill:#A0A0A0;stroke:#000000;stroke-miterlimit:10;" d="M109.393,10.447h-5.428l0.49-2.262h13.268
			l-0.49,2.262h-5.314l-3.694,17.376h-2.525L109.393,10.447z"/>
		<path id="letter_x5F_E1" style="fill:#A0A0A0;stroke:#000000;stroke-miterlimit:10;" d="M128.309,8.186h12.249l-0.488,2.262
			h-9.725l-1.245,5.88h8.03l-0.491,2.261h-8.028l-1.47,6.974h9.725l-0.491,2.262h-12.249L128.309,8.186z"/>
		<path id="letter_x5F_R2" style="fill:#A0A0A0;stroke:#000000;stroke-miterlimit:10;" d="M150.618,8.186h6.67
			c3.281,0,5.543,1.545,4.75,5.352c-0.525,2.413-2.638,4.788-5.164,5.505l3.13,7.952l-2.488,1.319l-3.13-8.896h-3.655l-1.77,8.405
			h-2.526L150.618,8.186z M154.538,17.156c2.488,0,4.374-1.394,4.862-3.619c0.376-1.771-0.414-3.09-2.676-3.09h-4.071l-1.432,6.709
			H154.538z"/>
		<path id="letter_x5F_A" style="fill:#A0A0A0;stroke:#000000;stroke-miterlimit:10;" d="M172.4,22.47l-3.092,5.844l-2.299-0.904
			L177.3,8.186h3.242l2.071,19.224l-2.675,0.904l-0.566-5.844H172.4z M178.28,11.125l-4.713,9.083h5.58L178.28,11.125z"/>
		<path id="letter_x5F_C" style="fill:#A0A0A0;stroke:#000000;stroke-miterlimit:10;" d="M205.188,24.054
			c-2.111,2.488-4.336,4.108-7.388,4.108c-5.729,0-6.408-5.275-5.391-10.139c1.658-7.84,6.333-10.177,9.5-10.177
			c3.052,0,4.485,1.583,5.313,4.184l-2.563,1.168c-0.488-1.583-1.319-2.978-3.241-2.978c-3.92,0-5.73,4.749-6.371,7.765
			c-0.641,3.054-0.942,7.804,3.055,7.804c2.299,0,3.768-1.396,5.313-3.167L205.188,24.054z"/>
		<path id="letter_x5F_T3" style="fill:#A0A0A0;stroke:#000000;stroke-miterlimit:10;" d="M222.445,10.447h-5.429l0.492-2.262
			h13.267l-0.488,2.262h-5.316l-3.692,17.376h-2.525L222.445,10.447z"/>
		<path id="letter_x5F_I" style="fill:#A0A0A0;stroke:#000000;stroke-miterlimit:10;" d="M239.026,25.562h2.75l3.204-15.115h-2.75
			l0.488-2.262h8.066l-0.488,2.262h-2.791l-3.204,15.115h2.791l-0.492,2.262h-8.065L239.026,25.562z"/>
		<path id="letter_x5F_V" style="fill:#A0A0A0;stroke:#000000;stroke-miterlimit:10;" d="M274.829,7.696l2.187,0.904l-11.722,19.714
			h-0.454L261.486,8.6l2.639-0.904l2.261,14.398L274.829,7.696z"/>
		<path id="letter_x5F_E2" style="fill:#A0A0A0;stroke:#000000;stroke-miterlimit:10;" d="M286.585,8.186h12.25l-0.491,2.262h-9.725
			l-1.244,5.88h8.029l-0.489,2.261h-8.028l-1.472,6.974h9.725l-0.488,2.262H282.4L286.585,8.186z"/>
	</g>
</g>
</svg>
